<?xml version="1.0" encoding="UTF-8" standalone="no"?>
<!-- Generator: Adobe Illustrator 19.0.0, SVG Export Plug-In . SVG Version: 6.00 Build 0)  -->

<svg
   xmlns:dc="http://purl.org/dc/elements/1.1/"
   xmlns:cc="http://creativecommons.org/ns#"
   xmlns:rdf="http://www.w3.org/1999/02/22-rdf-syntax-ns#"
   xmlns:svg="http://www.w3.org/2000/svg"
   xmlns="http://www.w3.org/2000/svg"
   xmlns:sodipodi="http://sodipodi.sourceforge.net/DTD/sodipodi-0.dtd"
   xmlns:inkscape="http://www.inkscape.org/namespaces/inkscape"
   version="1.1"
   id="Capa_1"
   x="0px"
   y="0px"
   viewBox="0 0 280.00002 280.00001"
   xml:space="preserve"
   sodipodi:docname="business.svg"
   width="280"
   height="280"
   inkscape:version="0.92.4 (fd57863, 2020-04-02)"><metadata
   id="metadata103"><rdf:RDF><cc:Work
       rdf:about=""><dc:format>image/svg+xml</dc:format><dc:type
         rdf:resource="http://purl.org/dc/dcmitype/StillImage" /><dc:title></dc:title></cc:Work></rdf:RDF></metadata><defs
   id="defs101" /><sodipodi:namedview
   pagecolor="#ffffff"
   bordercolor="#666666"
   borderopacity="1"
   objecttolerance="10"
   gridtolerance="10"
   guidetolerance="10"
   inkscape:pageopacity="0"
   inkscape:pageshadow="2"
   inkscape:window-width="1853"
   inkscape:window-height="1025"
   id="namedview99"
   showgrid="false"
   fit-margin-top="0"
   fit-margin-left="0"
   fit-margin-right="0"
   fit-margin-bottom="0"
   inkscape:zoom="1.3037256"
   inkscape:cx="182.92531"
   inkscape:cy="135.22971"
   inkscape:window-x="67"
   inkscape:window-y="27"
   inkscape:window-maximized="1"
   inkscape:current-layer="Capa_1" />
<g
   id="g6"
   transform="matrix(0.29944324,0,0,0.29944324,58.531738,115.96251)">
	<g
   id="g4">
		<path
   d="m 354.675,180.814 h -22.714 c -1.387,-4.402 -3.151,-8.664 -5.28,-12.753 L 342.741,152 c 2.007,-2.007 3.112,-4.676 3.112,-7.515 0,-2.84 -1.105,-5.509 -3.112,-7.516 L 323.84,118.067 c -4.144,-4.141 -10.886,-4.143 -15.031,0.001 l -16.061,16.061 c -4.089,-2.129 -8.352,-3.894 -12.753,-5.28 v -22.715 c -10e-4,-5.86 -4.769,-10.629 -10.63,-10.629 h -26.731 c -5.86,0 -10.628,4.768 -10.628,10.629 v 22.715 c -4.402,1.387 -8.664,3.151 -12.754,5.28 L 203.19,118.067 c -4.144,-4.142 -10.886,-4.141 -15.03,0.001 l -18.9,18.9 c -2.008,2.007 -3.114,4.676 -3.114,7.516 0,2.839 1.106,5.508 3.113,7.515 l 16.061,16.061 c -2.129,4.089 -3.894,8.352 -5.28,12.753 h -22.715 c -5.86,0 -10.628,4.768 -10.628,10.629 v 26.731 c 0,5.86 4.768,10.628 10.628,10.628 h 22.715 c 1.387,4.401 3.151,8.665 5.28,12.753 l -16.061,16.061 c -4.144,4.144 -4.144,10.887 0,15.031 l 18.901,18.901 c 4.144,4.145 10.888,4.144 15.031,0 l 16.061,-16.061 c 4.089,2.129 8.353,3.894 12.754,5.28 v 22.715 c 0,5.86 4.768,10.628 10.628,10.628 h 26.731 c 5.86,0 10.629,-4.768 10.629,-10.628 v -22.715 c 4.4,-1.386 8.664,-3.151 12.753,-5.28 l 16.061,16.061 c 4.145,4.145 10.888,4.144 15.032,0 l 18.9,-18.901 c 2.007,-2.007 3.112,-4.676 3.112,-7.515 0,-2.839 -1.105,-5.508 -3.112,-7.516 l -16.061,-16.061 c 2.129,-4.089 3.894,-8.352 5.28,-12.753 h 22.715 c 5.86,0 10.629,-4.768 10.629,-10.628 v -26.731 c 10e-4,-5.86 -4.768,-10.628 -10.628,-10.628 z m -4.37,32.987 h -24.059 c -3.484,0 -6.509,2.399 -7.303,5.792 -1.599,6.835 -4.283,13.318 -7.978,19.267 -1.839,2.96 -1.396,6.796 1.067,9.261 l 17.011,17.011 -12.718,12.718 -17.011,-17.011 c -2.464,-2.464 -6.3,-2.908 -9.262,-1.068 -5.95,3.695 -12.433,6.379 -19.266,7.979 -3.393,0.793 -5.792,3.818 -5.792,7.303 v 24.06 h -17.985 v -24.06 c 0,-3.484 -2.399,-6.509 -5.792,-7.303 -6.833,-1.598 -13.316,-4.282 -19.267,-7.979 -2.959,-1.836 -6.796,-1.396 -9.261,1.068 l -17.011,17.011 -12.718,-12.718 17.011,-17.011 c 2.464,-2.464 2.906,-6.3 1.068,-9.261 -3.695,-5.95 -6.379,-12.433 -7.978,-19.267 -0.793,-3.393 -3.819,-5.792 -7.303,-5.792 h -24.059 v -17.985 h 24.059 c 3.484,0 6.509,-2.399 7.303,-5.792 1.599,-6.834 4.283,-13.317 7.978,-19.267 1.838,-2.96 1.396,-6.796 -1.068,-9.261 l -17.011,-17.011 12.718,-12.718 17.011,17.011 c 2.462,2.464 6.3,2.907 9.261,1.068 5.949,-3.695 12.432,-6.379 19.267,-7.978 3.393,-0.793 5.792,-3.818 5.792,-7.303 v -24.06 h 17.985 v 24.06 c 0,3.484 2.399,6.509 5.792,7.303 6.834,1.599 13.316,4.283 19.267,7.978 2.958,1.837 6.796,1.394 9.261,-1.068 l 17.011,-17.011 12.718,12.718 -17.011,17.011 c -2.464,2.464 -2.906,6.3 -1.067,9.261 3.694,5.948 6.378,12.431 7.978,19.267 0.794,3.393 3.818,5.792 7.303,5.792 h 24.059 z"
   id="path2"
   inkscape:connector-curvature="0" />
	</g>
</g>
<g
   id="g12"
   transform="matrix(0.29944324,0,0,0.29944324,58.531738,115.96251)">
	<g
   id="g10">
		<path
   d="m 256,164.628 c -22.156,0 -40.18,18.025 -40.18,40.18 0,22.155 18.025,40.18 40.18,40.18 22.155,0 40.18,-18.025 40.18,-40.18 0,-22.155 -18.024,-40.18 -40.18,-40.18 z m 0,65.36 c -13.884,0 -25.18,-11.296 -25.18,-25.18 0,-13.884 11.296,-25.18 25.18,-25.18 13.884,0 25.18,11.296 25.18,25.18 0,13.884 -11.296,25.18 -25.18,25.18 z"
   id="path8"
   inkscape:connector-curvature="0" />
	</g>
</g>
<g
   id="g18"
   transform="matrix(0.29944324,0,0,0.29944324,58.531738,115.96251)">
	<g
   id="g16">
		<path
   d="M 83.574,197.308 H 58.692 c -4.142,0 -7.5,3.358 -7.5,7.5 0,4.142 3.358,7.5 7.5,7.5 h 24.882 c 4.142,0 7.5,-3.358 7.5,-7.5 0,-4.142 -3.358,-7.5 -7.5,-7.5 z"
   id="path14"
   inkscape:connector-curvature="0" />
	</g>
</g>
<g
   id="g24"
   transform="matrix(0.29944324,0,0,0.29944324,58.531738,115.96251)">
	<g
   id="g22">
		<path
   d="m 453.309,197.308 h -24.882 c -4.143,0 -7.5,3.358 -7.5,7.5 0,4.142 3.357,7.5 7.5,7.5 h 24.882 c 4.143,0 7.5,-3.358 7.5,-7.5 0,-4.142 -3.358,-7.5 -7.5,-7.5 z"
   id="path20"
   inkscape:connector-curvature="0" />
	</g>
</g>
<g
   id="g30"
   transform="matrix(0.29944324,0,0,0.29944324,58.531738,115.96251)">
	<g
   id="g28">
		<path
   d="m 139.379,321.429 c -2.928,-2.929 -7.677,-2.929 -10.607,0 l -17.594,17.594 c -2.929,2.929 -2.929,7.678 0,10.607 2.929,2.929 7.678,2.929 10.607,0 l 17.594,-17.594 c 2.929,-2.929 2.929,-7.678 0,-10.607 z"
   id="path26"
   inkscape:connector-curvature="0" />
	</g>
</g>
<g
   id="g36"
   transform="matrix(0.29944324,0,0,0.29944324,58.531738,115.96251)">
	<g
   id="g34">
		<path
   d="m 400.822,59.988 c -2.93,-2.929 -7.678,-2.929 -10.608,0 L 372.62,77.582 c -2.929,2.929 -2.929,7.678 0,10.607 2.93,2.929 7.678,2.928 10.608,0 l 17.594,-17.594 c 2.929,-2.93 2.929,-7.679 0,-10.607 z"
   id="path32"
   inkscape:connector-curvature="0" />
	</g>
</g>
<g
   id="g42"
   transform="matrix(0.29944324,0,0,0.29944324,58.531738,115.96251)">
	<g
   id="g40">
		<path
   d="m 256.001,0 c -4.143,0 -7.5,3.358 -7.5,7.5 v 24.882 c 0,4.142 3.357,7.5 7.5,7.5 4.143,0 7.5,-3.358 7.5,-7.5 V 7.5 c 0,-4.142 -3.357,-7.5 -7.5,-7.5 z"
   id="path38"
   inkscape:connector-curvature="0" />
	</g>
</g>
<g
   id="g48"
   transform="matrix(0.29944324,0,0,0.29944324,58.531738,115.96251)">
	<g
   id="g46">
		<path
   d="m 400.822,339.023 -17.594,-17.594 c -2.93,-2.929 -7.678,-2.929 -10.608,0 -2.929,2.929 -2.929,7.679 0,10.607 l 17.594,17.594 c 2.93,2.929 7.678,2.929 10.608,0 2.929,-2.929 2.929,-7.678 0,-10.607 z"
   id="path44"
   inkscape:connector-curvature="0" />
	</g>
</g>
<g
   id="g54"
   transform="matrix(0.29944324,0,0,0.29944324,58.531738,115.96251)">
	<g
   id="g52">
		<path
   d="M 139.379,77.582 121.785,59.988 c -2.929,-2.929 -7.678,-2.929 -10.607,0 -2.929,2.929 -2.929,7.678 0,10.607 l 17.594,17.594 c 2.929,2.929 7.678,2.929 10.607,0 2.929,-2.93 2.929,-7.679 0,-10.607 z"
   id="path50"
   inkscape:connector-curvature="0" />
	</g>
</g>
<g
   id="g60"
   transform="matrix(0.29944324,0,0,0.29944324,58.531738,115.96251)">
	<g
   id="g58">
		<path
   d="M 405.629,186.435 C 397.558,117.56 342.961,62.958 274.409,54.602 c -4.105,-0.505 -7.852,2.426 -8.354,6.537 -0.501,4.112 2.426,7.852 6.538,8.354 62.257,7.588 110.837,56.395 118.136,118.688 0.447,3.817 3.688,6.627 7.439,6.627 0.292,0 0.586,-0.017 0.883,-0.051 4.116,-0.481 7.06,-4.207 6.578,-8.322 z"
   id="path56"
   inkscape:connector-curvature="0" />
	</g>
</g>
<g
   id="g66"
   transform="matrix(0.29944324,0,0,0.29944324,58.531738,115.96251)">
	<g
   id="g64">
		<path
   d="m 398.963,214.868 c -4.116,-0.524 -7.863,2.389 -8.383,6.499 -5.113,40.388 -27.909,76.025 -62.543,97.77 -14.931,9.375 -23.844,25.419 -23.844,42.917 v 30.867 H 207.81 v -31.55 c 0,-16.944 -8.855,-32.952 -23.108,-41.775 -40.306,-24.95 -64.37,-68.107 -64.371,-115.446 0,-68.352 51.198,-126.238 119.091,-134.648 4.111,-0.509 7.03,-4.255 6.521,-8.366 -0.509,-4.11 -4.253,-7.037 -8.366,-6.521 -75.015,9.293 -132.25,73.803 -132.249,149.535 0,26.133 6.797,51.881 19.658,74.461 12.467,21.89 30.386,40.472 51.818,53.739 9.871,6.11 16.002,17.23 16.002,29.02 v 32.643 c -7.626,2.65 -13.125,9.892 -13.125,18.409 v 10.692 c 0,4.527 1.564,8.688 4.161,12.001 -2.598,3.313 -4.161,7.473 -4.161,12.001 v 10.691 c 0,10.753 8.749,19.501 19.501,19.501 h 23.58 v 16.955 c 0,9.781 7.957,17.738 17.737,17.738 h 30.997 c 9.781,0 17.737,-7.957 17.737,-17.738 v -16.955 h 23.58 c 10.753,0 19.501,-8.749 19.501,-19.501 v -10.691 c 0,-4.527 -1.564,-8.688 -4.162,-12.001 2.598,-3.313 4.162,-7.473 4.162,-12.001 v -10.692 c 0,-8.518 -5.498,-15.759 -13.125,-18.409 v -31.96 c 0,-12.305 6.287,-23.599 16.82,-30.212 38.454,-24.144 63.768,-63.724 69.447,-108.59 0.525,-4.11 -2.384,-7.863 -6.493,-8.383 z M 274.235,494.262 c 0,1.483 -1.253,2.737 -2.736,2.737 h -30.997 c -1.483,0 -2.736,-1.253 -2.736,-2.737 v -16.955 h 36.469 z m 43.082,-36.456 c 0,2.439 -2.061,4.5 -4.5,4.5 -13.24,0 -101.138,0 -113.632,0 -2.439,0 -4.5,-2.061 -4.5,-4.5 v -10.691 c 0,-2.439 2.061,-4.5 4.5,-4.5 h 113.632 c 2.439,0 4.5,2.061 4.5,4.5 z m 0,-34.693 c 0,2.439 -2.061,4.5 -4.5,4.5 H 199.185 c -2.439,0 -4.5,-2.061 -4.5,-4.5 v -10.692 c 0,-2.439 2.061,-4.5 4.5,-4.5 h 113.632 c 2.439,0 4.5,2.061 4.5,4.5 z"
   id="path62"
   inkscape:connector-curvature="0" />
	</g>
</g>
<g
   id="g68"
   transform="translate(-251.15278,361.48143)">
</g>
<g
   id="g70"
   transform="translate(-251.15278,361.48143)">
</g>
<g
   id="g72"
   transform="translate(-251.15278,361.48143)">
</g>
<g
   id="g74"
   transform="translate(-251.15278,361.48143)">
</g>
<g
   id="g76"
   transform="translate(-251.15278,361.48143)">
</g>
<g
   id="g78"
   transform="translate(-251.15278,361.48143)">
</g>
<g
   id="g80"
   transform="translate(-251.15278,361.48143)">
</g>
<g
   id="g82"
   transform="translate(-251.15278,361.48143)">
</g>
<g
   id="g84"
   transform="translate(-251.15278,361.48143)">
</g>
<g
   id="g86"
   transform="translate(-251.15278,361.48143)">
</g>
<g
   id="g88"
   transform="translate(-251.15278,361.48143)">
</g>
<g
   id="g90"
   transform="translate(-251.15278,361.48143)">
</g>
<g
   id="g92"
   transform="translate(-251.15278,361.48143)">
</g>
<g
   id="g94"
   transform="translate(-251.15278,361.48143)">
</g>
<g
   id="g96"
   transform="translate(-251.15278,361.48143)">
</g>
<g
   id="g936"
   transform="matrix(1.3848133,0,0,1.3848133,2.5881094,192.75676)"><path
     id="path910"
     d="M 57,34.53 V 14.92 C 60.387,14.432 63,11.519 63,8 63,4.141 59.86,1 56,1 52.14,1 49,4.141 49,8 H 1 v 40 h 30.051 c 0.52,8.356 7.465,15 15.949,15 8.822,0 16,-7.178 16,-16 0,-5.039 -2.347,-9.535 -6,-12.47 z M 56,3 c 2.757,0 5,2.243 5,5 0,2.757 -2.243,5 -5,5 -2.757,0 -5,-2.243 -5,-5 0,-2.757 2.243,-5 5,-5 z M 3,10 h 46.295 c 0.239,0.798 0.619,1.533 1.107,2.185 l -6.116,6.116 C 43.894,18.113 43.462,18 43,18 c -0.462,0 -0.894,0.113 -1.285,0.301 L 39.7,16.286 C 39.887,15.894 40,15.462 40,15 c 0,-1.654 -1.346,-3 -3,-3 -1.654,0 -3,1.346 -3,3 0,0.462 0.113,0.894 0.301,1.285 L 29.286,21.3 C 28.894,21.113 28.462,21 28,21 c -1.654,0 -3,1.346 -3,3 0,1.654 1.346,3 3,3 1.654,0 3,-1.346 3,-3 0,-0.462 -0.113,-0.894 -0.301,-1.285 L 35.714,17.7 c 0.392,0.187 0.824,0.3 1.286,0.3 0.462,0 0.894,-0.113 1.285,-0.301 L 40.3,19.714 C 40.113,20.106 40,20.538 40,21 c 0,1.654 1.346,3 3,3 1.654,0 3,-1.346 3,-3 0,-0.462 -0.113,-0.894 -0.301,-1.285 l 6.117,-6.116 c 0.915,0.686 2.001,1.151 3.184,1.322 V 33.166 C 52.643,31.797 49.916,31 47,31 42.22,31 37.934,33.118 35,36.453 V 32 h -6 v 12 h 2.292 c -0.124,0.653 -0.199,1.322 -0.241,2 H 3 Z m 40,10 c 0.551,0 1,0.448 1,1 0,0.552 -0.449,1 -1,1 -0.551,0 -1,-0.448 -1,-1 0,-0.552 0.449,-1 1,-1 z m -7,-5 c 0,-0.552 0.449,-1 1,-1 0.551,0 1,0.448 1,1 0,0.552 -0.449,1 -1,1 -0.551,0 -1,-0.448 -1,-1 z m -7,9 c 0,0.552 -0.449,1 -1,1 -0.551,0 -1,-0.448 -1,-1 0,-0.552 0.449,-1 1,-1 0.551,0 1,0.448 1,1 z m 18,31 c -4.411,0 -8,-3.589 -8,-8 0,-4.411 3.589,-8 8,-8 4.411,0 8,3.589 8,8 0,4.411 -3.589,8 -8,8 z M 33,39.271 C 32.521,40.135 32.125,41.048 31.811,42 H 31 v -8 h 2 z m 13,-6.22 v 4 c -5.046,0.504 -9,4.773 -9,9.949 0,1.463 0.324,2.85 0.891,4.104 l -3.469,2.003 C 33.52,51.259 33,49.191 33,47 33,39.618 38.747,33.567 46,33.051 Z M 47,61 c -4.814,0 -9.068,-2.443 -11.588,-6.155 l 3.483,-2.011 C 40.713,55.352 43.664,57 47,57 c 3.336,0 6.287,-1.648 8.105,-4.166 l 3.483,2.011 C 56.068,58.557 51.814,61 47,61 Z M 59.578,53.107 56.109,51.104 C 56.676,49.85 57,48.463 57,47 57,41.824 53.046,37.554 48,37.051 v -4 c 7.253,0.516 13,6.567 13,13.949 0,2.191 -0.52,4.259 -1.422,6.107 z"
     inkscape:connector-curvature="0" /><path
     id="path912"
     d="m 47,41 c -3.309,0 -6,2.691 -6,6 0,3.309 2.691,6 6,6 3.309,0 6,-2.691 6,-6 0,-3.309 -2.691,-6 -6,-6 z m 0,10 c -2.206,0 -4,-1.794 -4,-4 0,-2.206 1.794,-4 4,-4 2.206,0 4,1.794 4,4 0,2.206 -1.794,4 -4,4 z"
     inkscape:connector-curvature="0" /><path
     id="path914"
     d="m 5,12 h 2 v 2 H 5 Z"
     inkscape:connector-curvature="0" /><path
     id="path916"
     d="m 9,12 h 14 v 2 H 9 Z"
     inkscape:connector-curvature="0" /><path
     id="path918"
     d="m 5,16 h 2 v 2 H 5 Z"
     inkscape:connector-curvature="0" /><path
     id="path920"
     d="m 9,16 h 14 v 2 H 9 Z"
     inkscape:connector-curvature="0" /><path
     id="path922"
     d="m 5,20 h 2 v 2 H 5 Z"
     inkscape:connector-curvature="0" /><path
     id="path924"
     d="m 9,20 h 14 v 2 H 9 Z"
     inkscape:connector-curvature="0" /><path
     id="path926"
     d="m 5,24 h 2 v 2 H 5 Z"
     inkscape:connector-curvature="0" /><path
     id="path928"
     d="m 9,24 h 14 v 2 H 9 Z"
     inkscape:connector-curvature="0" /><path
     id="path930"
     d="m 5,44 h 6 V 34 H 5 Z m 2,-8 h 2 v 6 H 7 Z"
     inkscape:connector-curvature="0" /><path
     id="path932"
     d="m 13,44 h 6 v -8 h -6 z m 2,-6 h 2 v 4 h -2 z"
     inkscape:connector-curvature="0" /><path
     id="path934"
     d="m 21,44 h 6 V 28 h -6 z m 2,-14 h 2 v 12 h -2 z"
     inkscape:connector-curvature="0" /></g><g
   id="g1092"
   transform="matrix(0.16910987,0,0,0.16910987,183.27935,188.2083)"><g
     id="g963">
	<g
   id="g961">
		<path
   id="path959"
   d="m 181.72,366.814 c -0.723,-0.206 -1.463,-0.322 -2.208,-0.362 10.954,-11.513 17.7,-27.066 17.7,-44.174 v -52.611 c 0,-0.481 -0.046,-0.95 -0.111,-1.412 0.066,-0.95 0.111,-1.906 0.111,-2.872 v -33.286 c 0,-5.523 -4.477,-10 -10,-10 h -67.073 c -28.245,0 -51.223,22.979 -51.223,51.223 v 48.958 c 0,17.108 6.745,32.661 17.7,44.174 -0.744,0.04 -1.484,0.156 -2.206,0.362 C 37.153,371.093 0,410.924 0,459.276 V 502 c 0,5.523 4.477,10 10,10 h 246.127 c 5.523,0 10,-4.477 10,-10 v -42.724 c 0,-48.351 -37.151,-88.182 -84.407,-92.462 z M 88.916,286.001 v -12.682 c 0,-17.216 14.007,-31.223 31.223,-31.223 h 57.073 v 23.286 c 0,11.723 -9.537,21.26 -21.26,21.26 H 88.916 Z m 0,20.641 h 67.036 c 7.772,0 15.047,-2.162 21.26,-5.914 v 21.549 c 0,24.343 -19.805,44.148 -44.148,44.148 -24.343,0 -44.148,-19.805 -44.148,-44.148 z m 65.913,79.784 -21.765,21.766 -21.765,-21.766 z M 246.128,492 v 0 H 20 v -20 h 41.5 c 5.523,0 10,-4.477 10,-10 0,-5.523 -4.477,-10 -10,-10 H 20.365 c 3.359,-33.716 29.806,-60.717 63.255,-64.969 l 42.373,42.373 c 1.875,1.875 4.419,2.929 7.071,2.929 2.652,0 5.196,-1.054 7.071,-2.929 l 42.373,-42.373 c 35.824,4.553 63.62,35.204 63.62,72.245 z"
   inkscape:connector-curvature="0" />
	</g>
</g><g
     id="g969">
	<g
   id="g967">
		<path
   id="path965"
   d="m 427.595,144.718 c -0.723,-0.206 -1.464,-0.322 -2.21,-0.362 10.954,-11.513 17.699,-27.066 17.699,-44.174 V 47.57 c 0,-0.481 -0.046,-0.95 -0.111,-1.412 0.066,-0.95 0.111,-1.906 0.111,-2.872 V 10 c 0,-5.523 -4.477,-10 -10,-10 h -67.073 c -28.245,0 -51.223,22.979 -51.223,51.223 v 48.958 c 0,17.108 6.745,32.661 17.699,44.174 -0.745,0.04 -1.487,0.156 -2.21,0.362 -47.255,4.281 -84.405,44.112 -84.405,92.462 v 42.723 c 0,5.523 4.477,10 10,10 h 80.46 c 5.523,0 10,-4.477 10,-10 0,-5.523 -4.477,-10 -10,-10 h -70.46 V 237.18 c 0,-37.041 27.795,-67.692 63.619,-72.245 l 42.373,42.373 c 1.953,1.953 4.512,2.929 7.071,2.929 2.559,0 5.119,-0.976 7.071,-2.929 l 42.373,-42.373 C 464.205,169.489 492,200.139 492,237.18 v 32.723 h -73.667 c -5.523,0 -10,4.477 -10,10 0,5.523 4.477,10 10,10 H 502 c 5.523,0 10,-4.477 10,-10 V 237.18 c 0,-48.35 -37.151,-88.181 -84.405,-92.462 z m -48.658,41.377 -21.765,-21.765 h 43.53 z m 44.148,-85.914 c 0,24.343 -19.805,44.148 -44.148,44.148 -24.343,0 -44.148,-19.804 -44.148,-44.147 V 84.546 h 67.036 c 7.772,0 15.047,-2.163 21.26,-5.914 z m 0,-56.895 c 0,11.723 -9.537,21.26 -21.26,21.26 H 334.789 V 63.905 51.223 C 334.789,34.007 348.796,20 366.012,20 h 57.073 z"
   inkscape:connector-curvature="0" />
	</g>
</g><g
     id="g975">
	<g
   id="g973">
		<path
   id="path971"
   d="m 386.01,272.83 c -1.86,-1.86 -4.44,-2.93 -7.07,-2.93 -2.64,0 -5.21,1.07 -7.07,2.93 -1.87,1.86 -2.93,4.44 -2.93,7.07 0,2.64 1.06,5.21 2.93,7.07 1.86,1.87 4.43,2.93 7.07,2.93 2.63,0 5.21,-1.06 7.07,-2.93 1.86,-1.86 2.93,-4.43 2.93,-7.07 0,-2.63 -1.07,-5.21 -2.93,-7.07 z"
   inkscape:connector-curvature="0" />
	</g>
</g><g
     id="g981">
	<g
   id="g979">
		<path
   id="path977"
   d="M 267.405,139.929 225.584,98.108 V 50 c 0,-27.57 -22.43,-50 -50,-50 H 50 C 22.43,0 0,22.43 0,50 v 88 c 0,27.57 22.43,50 50,50 h 125.583 c 20.674,0 38.702,-12.407 46.266,-31 h 38.484 c 4.044,0 7.691,-2.437 9.239,-6.173 1.548,-3.736 0.692,-8.038 -2.167,-10.898 z M 214.554,137 c -4.659,0 -8.701,3.217 -9.746,7.758 C 201.66,158.442 189.643,168 175.583,168 H 50 C 33.458,168 20,154.542 20,138 V 50 C 20,33.458 33.458,20 50,20 h 125.583 c 16.542,0 30,13.458 30,30 v 52.25 c 0,2.652 1.054,5.196 2.929,7.071 L 236.191,137 Z"
   inkscape:connector-curvature="0" />
	</g>
</g><g
     id="g987">
	<g
   id="g985">
		<path
   id="path983"
   d="M 462,324 H 336.417 c -20.674,0 -38.702,12.407 -46.266,31 h -38.484 c -4.044,0 -7.691,2.437 -9.239,6.173 -1.548,3.736 -0.692,8.038 2.167,10.898 l 41.821,41.821 V 462 c 0,27.57 22.43,50 50,50 H 462 c 27.57,0 50,-22.43 50,-50 v -88 c 0,-27.57 -22.43,-50 -50,-50 z m 30,138 c 0,16.542 -13.458,30 -30,30 H 336.417 c -16.542,0 -30,-13.458 -30,-30 v -52.25 c 0,-2.652 -1.054,-5.196 -2.929,-7.071 L 275.809,375 h 21.637 c 4.659,0 8.701,-3.217 9.746,-7.758 C 310.34,353.558 322.357,344 336.417,344 H 462 c 16.542,0 30,13.458 30,30 z"
   inkscape:connector-curvature="0" />
	</g>
</g><g
     id="g993">
	<g
   id="g991">
		<path
   id="path989"
   d="m 444.156,391.392 c -3.904,-3.905 -10.236,-3.905 -14.141,0 l -26.583,26.583 -12.361,-12.361 c -3.905,-3.905 -10.237,-3.905 -14.143,0 -3.905,3.905 -3.905,10.237 0,14.143 l 19.432,19.432 c 1.953,1.953 4.512,2.929 7.071,2.929 2.559,0 5.119,-0.976 7.071,-2.929 l 33.654,-33.654 c 3.905,-3.905 3.905,-10.237 0,-14.143 z"
   inkscape:connector-curvature="0" />
	</g>
</g><g
     id="g999">
	<g
   id="g997">
		<path
   id="path995"
   d="m 158.253,66.268 c -1.182,-17.147 -15.004,-30.969 -32.151,-32.151 -9.723,-0.669 -18.991,2.611 -26.091,9.239 -7.001,6.535 -11.017,15.775 -11.017,25.349 0.001,5.524 4.478,10.001 10.001,10.001 5.523,0 10,-4.477 10,-10 0,-4.111 1.656,-7.921 4.664,-10.729 3.003,-2.804 6.938,-4.196 11.069,-3.906 7.239,0.499 13.074,6.334 13.573,13.573 0.505,7.319 -4.293,13.787 -11.408,15.379 -7.788,1.742 -13.227,8.513 -13.227,16.465 v 5.335 c 0,5.523 4.477,10 10,10 5.523,0 10,-4.477 10,-10 v -2.91 c 15.494,-4.622 25.719,-19.229 24.587,-35.645 z"
   inkscape:connector-curvature="0" />
	</g>
</g><g
     id="g1005">
	<g
   id="g1003">
		<path
   id="path1001"
   d="m 130.74,136.02 c -1.86,-1.86 -4.44,-2.93 -7.07,-2.93 -2.64,0 -5.21,1.07 -7.07,2.93 -1.87,1.86 -2.93,4.44 -2.93,7.07 0,2.63 1.06,5.21 2.93,7.07 1.86,1.86 4.43,2.93 7.07,2.93 2.63,0 5.21,-1.07 7.07,-2.93 1.86,-1.86 2.93,-4.44 2.93,-7.07 0,-2.63 -1.07,-5.21 -2.93,-7.07 z"
   inkscape:connector-curvature="0" />
	</g>
</g><g
     id="g1011">
	<g
   id="g1009">
		<path
   id="path1007"
   d="m 108.57,454.93 c -1.86,-1.86 -4.44,-2.93 -7.07,-2.93 -2.63,0 -5.21,1.07 -7.07,2.93 -1.86,1.86 -2.93,4.44 -2.93,7.07 0,2.63 1.07,5.21 2.93,7.07 1.86,1.86 4.44,2.93 7.07,2.93 2.63,0 5.21,-1.07 7.07,-2.93 1.86,-1.86 2.93,-4.44 2.93,-7.07 0,-2.63 -1.07,-5.21 -2.93,-7.07 z"
   inkscape:connector-curvature="0" />
	</g>
</g><g
     id="g1013">
</g><g
     id="g1015">
</g><g
     id="g1017">
</g><g
     id="g1019">
</g><g
     id="g1021">
</g><g
     id="g1023">
</g><g
     id="g1025">
</g><g
     id="g1027">
</g><g
     id="g1029">
</g><g
     id="g1031">
</g><g
     id="g1033">
</g><g
     id="g1035">
</g><g
     id="g1037">
</g><g
     id="g1039">
</g><g
     id="g1041">
</g></g><g
   id="g1155"
   transform="matrix(0.1921876,0,0,0.1921876,183.68868,81.304111)"><g
     id="g1098">
	<g
   id="g1096">
		<path
   id="path1094"
   d="m 372.189,256.191 -51.928,-66.104 c 18.439,-18.904 29.574,-43.737 31.424,-70.08 h 80.408 v 8.8 c -18.613,3.825 -31.979,20.198 -32,39.2 0.005,22.091 17.917,39.996 40.008,39.992 22.091,-0.004 39.996,-17.917 39.992,-40.008 -0.004,-19.005 -13.379,-35.383 -32,-39.184 v -16.8 c 0,-4.418 -3.582,-8 -8,-8 h -88.408 c -1.564,-22.165 -9.728,-43.355 -23.44,-60.84 l 11.16,-11.16 h 94.16 c 4.418,12.497 18.131,19.046 30.627,14.627 12.497,-4.418 19.046,-18.131 14.627,-30.627 C 474.4,3.511 460.689,-3.039 448.193,1.379 441.358,3.795 435.982,9.172 433.566,16.006 h -97.472 c -2.122,0 -4.156,0.844 -5.656,2.344 l -12.92,12.92 C 273.06,-11.546 202.31,-10.215 159.493,34.243 141.295,53.139 130.324,77.835 128.502,104.006 h -67.2 L 35.149,45.183 C 46.84,39.03 51.33,24.566 45.178,12.875 39.026,1.184 24.561,-3.305 12.87,2.847 1.18,8.999 -3.31,23.463 2.842,35.154 6.075,41.298 11.819,45.735 18.581,47.31 l 30.2,67.952 c 1.286,2.887 4.152,4.746 7.312,4.744 h 72.408 c 1.842,26.04 12.762,50.608 30.856,69.424 l -67.536,67.536 c -43.669,-6.543 -84.374,23.553 -90.917,67.222 -6.543,43.669 23.553,84.374 67.222,90.917 1.318,0.198 2.641,0.362 3.967,0.493 v 40.408 c 0,4.418 3.582,8 8,8 h 73.472 c 4.418,12.497 18.131,19.046 30.627,14.627 12.496,-4.419 19.046,-18.131 14.627,-30.627 -4.419,-12.496 -18.131,-19.046 -30.627,-14.627 -6.835,2.416 -12.211,7.793 -14.627,14.627 H 88.093 v -32.408 c 43.938,-4.38 76.007,-43.55 71.627,-87.489 -2.964,-29.732 -22.26,-55.331 -50.027,-66.367 l 61.6,-61.6 c 40.116,31.586 96.582,31.813 136.952,0.552 l 44.384,56.496 c -61.285,8.549 -104.036,65.16 -95.487,126.444 8.549,61.285 65.16,104.036 126.444,95.487 61.285,-8.549 104.036,-65.16 95.487,-126.444 -7.508,-53.83 -52.569,-94.507 -106.884,-96.486 z m 91.904,-88.184 c 0,13.255 -10.745,24 -24,24 -13.255,0 -24,-10.745 -24,-24 0,-13.255 10.745,-24 24,-24 13.255,0 24,10.745 24,24 z m -8,-152 c 4.418,0 8,3.582 8,8 0,4.418 -3.582,8 -8,8 -4.418,0 -8,-3.582 -8,-8 0,-4.418 3.582,-8 8,-8 z m -432,16 c -4.418,0 -8,-3.582 -8,-8 0,-4.418 3.582,-8 8,-8 4.418,0 8,3.582 8,8 0,4.418 -3.582,8 -8,8 z m 152,416 c 4.418,0 8,3.582 8,8 0,4.418 -3.582,8 -8,8 -4.418,0 -8,-3.582 -8,-8 0,-4.418 3.582,-8 8,-8 z m -64,-56.656 c -19.771,11.546 -44.229,11.546 -64,0 v -15.344 c 0,-17.673 14.327,-32 32,-32 17.673,0 32,14.327 32,32 z m -48,-79.344 c 0,-8.837 7.163,-16 16,-16 8.837,0 16,7.163 16,16 0,8.837 -7.163,16 -16,16 -8.837,0 -16,-7.164 -16,-16 z m 64,-18.472 c 10.342,11.727 16.034,26.835 16,42.472 -0.003,15.546 -5.694,30.553 -16,42.192 v -2.192 c -0.01,-17.49 -9.533,-33.591 -24.856,-42.024 12.203,-12.784 11.731,-33.04 -1.053,-45.243 -12.784,-12.202 -33.04,-11.731 -45.243,1.053 -11.803,12.365 -11.803,31.824 0,44.189 -15.32,8.435 -24.839,24.535 -24.848,42.024 v 2.192 c -23.379,-26.51 -20.841,-66.953 5.668,-90.332 26.51,-23.379 66.953,-20.841 90.332,5.669 z m 168,-103.736 c -33.397,24.246 -78.603,24.246 -112,0 v -19.392 c 0,-14.58 11.82,-26.4 26.4,-26.4 h 17.76 l -11.608,29.024 c -1.189,2.973 -0.49,6.37 1.776,8.632 l 16,16 c 3.124,3.123 8.188,3.123 11.312,0 l 16,-16 c 2.266,-2.263 2.965,-5.659 1.776,-8.632 l -11.6,-29.024 h 17.784 c 14.58,0 26.4,11.82 26.4,26.4 z M 241.238,59.887 c -0.3,0.5 -0.544,1.03 -0.728,1.583 -4.048,12.136 -25.903,16.736 -39.975,18.072 2.146,-26.81 14.762,-39.536 39.559,-39.536 22.704,0 35.2,10.736 38.776,33.136 l -26.656,-16 c -3.79,-2.272 -8.704,-1.043 -10.976,2.745 z m 9.887,15.272 28.592,17.16 c -3.208,19.584 -27.344,35.688 -39.624,35.688 -17.843,-3.039 -32.686,-15.412 -38.888,-32.416 13.696,-1.128 38.424,-5.28 49.92,-20.432 z m -4.424,98.92 -6.608,6.616 -6.608,-6.616 6.608,-16.536 z m 28.296,-45.704 c 12.48,-9.821 20.159,-24.515 21.096,-40.368 0,-52.896 -30.456,-64 -56,-64 -25.544,0 -56,11.104 -56,64 0.93,15.862 8.61,30.566 21.096,40.392 -21.206,2.613 -37.127,20.641 -37.096,42.008 v 4.864 C 133.024,135.507 136.83,74.842 176.595,39.773 216.36,4.704 277.024,8.51 312.093,48.274 c 32,36.285 32,90.711 0,126.996 v -4.864 c 0.043,-21.375 -15.881,-39.418 -37.096,-42.031 z m 149.096,317.424 c -33.397,24.246 -78.603,24.246 -112,0 v -19.392 c 0,-14.58 11.82,-26.4 26.4,-26.4 h 17.76 l -11.608,29.024 c -1.189,2.973 -0.49,6.369 1.776,8.632 l 16,16 c 3.124,3.123 8.188,3.123 11.312,0 l 16,-16 c 2.266,-2.263 2.965,-5.659 1.776,-8.632 l -11.6,-29.024 h 17.784 c 14.58,0 26.4,11.82 26.4,26.4 z m -44.968,-114.64 v -0.008 l 28.592,17.16 c -3.208,19.592 -27.344,35.696 -39.624,35.696 -17.843,-3.039 -32.686,-15.412 -38.888,-32.416 13.696,-1.128 38.424,-5.281 49.92,-20.432 z m -50.592,4.384 v 0 c 2.144,-26.808 14.76,-39.536 39.56,-39.536 22.704,0 35.2,10.736 38.776,33.136 l -26.656,-16 c -3.789,-2.273 -8.703,-1.044 -10.976,2.745 -0.3,0.5 -0.544,1.03 -0.728,1.583 -4.048,12.136 -25.904,16.736 -39.976,18.072 z m 46.168,94.536 -6.608,6.616 -6.608,-6.616 6.608,-16.536 z m 65.392,1.215 v -4.888 c 0.043,-21.376 -15.881,-39.418 -37.096,-42.032 12.48,-9.821 20.159,-24.515 21.096,-40.368 0,-52.896 -30.456,-64 -56,-64 -25.544,0 -56,11.104 -56,64 0.93,15.862 8.61,30.566 21.096,40.392 -21.206,2.613 -37.127,20.641 -37.096,42.008 v 4.864 c -34.987,-39.795 -31.089,-100.419 8.706,-135.406 39.795,-34.987 100.419,-31.089 135.406,8.706 15.416,17.534 23.909,40.088 23.888,63.435 -0.005,23.32 -8.541,45.831 -24,63.289 z"
   inkscape:connector-curvature="0" />
	</g>
</g><g
     id="g1100">
</g><g
     id="g1102">
</g><g
     id="g1104">
</g><g
     id="g1106">
</g><g
     id="g1108">
</g><g
     id="g1110">
</g><g
     id="g1112">
</g><g
     id="g1114">
</g><g
     id="g1116">
</g><g
     id="g1118">
</g><g
     id="g1120">
</g><g
     id="g1122">
</g><g
     id="g1124">
</g><g
     id="g1126">
</g><g
     id="g1128">
</g></g></svg>