<?xml version="1.0" standalone="no"?>
<!DOCTYPE svg PUBLIC "-//W3C//DTD SVG 20010904//EN"
 "http://www.w3.org/TR/2001/REC-SVG-20010904/DTD/svg10.dtd">
<svg version="1.0" xmlns="http://www.w3.org/2000/svg"
 width="294.000000pt" height="294.000000pt" viewBox="0 0 294.000000 294.000000"
 preserveAspectRatio="xMidYMid meet">
<metadata>
Created by potrace 1.11, written by Peter Selinger 2001-2013
</metadata>
<g transform="translate(0.000000,294.000000) scale(0.100000,-0.100000)"
fill="#000000" stroke="none">
<path d="M945 2461 c-16 -4 -47 -16 -67 -27 -32 -17 -451 -418 -744 -713 -110
-110 -133 -157 -130 -261 3 -109 23 -137 259 -369 115 -113 223 -221 240 -238
16 -18 34 -30 39 -27 5 3 7 2 6 -3 -3 -9 78 -92 234 -239 69 -65 97 -84 143
-99 209 -65 412 113 373 327 -5 29 -16 66 -25 83 -8 16 -139 153 -291 302
l-277 273 278 272 c289 285 310 312 321 405 5 53 -16 142 -47 190 -64 100
-195 152 -312 124z"/>
<path d="M1837 2456 c-171 -63 -245 -239 -171 -406 9 -21 126 -143 292 -307
l276 -273 -281 -277 -282 -278 -20 -66 c-41 -140 13 -275 140 -344 43 -23 68
-30 125 -32 121 -4 142 11 465 327 582 569 553 534 554 670 0 120 -11 136
-261 382 -490 484 -579 568 -624 589 -57 27 -161 35 -213 15z"/>
</g>
</svg>
