<?xml version="1.0" encoding="UTF-8" standalone="no"?>
<svg
   xmlns:dc="http://purl.org/dc/elements/1.1/"
   xmlns:cc="http://creativecommons.org/ns#"
   xmlns:rdf="http://www.w3.org/1999/02/22-rdf-syntax-ns#"
   xmlns:svg="http://www.w3.org/2000/svg"
   xmlns="http://www.w3.org/2000/svg"
   xmlns:sodipodi="http://sodipodi.sourceforge.net/DTD/sodipodi-0.dtd"
   xmlns:inkscape="http://www.inkscape.org/namespaces/inkscape"
   width="2232"
   height="2500"
   viewBox="32.163 68.509 203.691 228.155"
   version="1.1"
   id="svg12"
   sodipodi:docname="android.svg"
   inkscape:version="0.92.4 (fd57863, 2020-04-02)">
  <metadata
     id="metadata18">
    <rdf:RDF>
      <cc:Work
         rdf:about="">
        <dc:format>image/svg+xml</dc:format>
        <dc:type
           rdf:resource="http://purl.org/dc/dcmitype/StillImage" />
      </cc:Work>
    </rdf:RDF>
  </metadata>
  <defs
     id="defs16" />
  <sodipodi:namedview
     pagecolor="#ffffff"
     bordercolor="#666666"
     borderopacity="1"
     objecttolerance="10"
     gridtolerance="10"
     guidetolerance="10"
     inkscape:pageopacity="0"
     inkscape:pageshadow="2"
     inkscape:window-width="1853"
     inkscape:window-height="1025"
     id="namedview14"
     showgrid="false"
     inkscape:zoom="0.0944"
     inkscape:cx="1116"
     inkscape:cy="1250"
     inkscape:window-x="67"
     inkscape:window-y="27"
     inkscape:window-maximized="1"
     inkscape:current-layer="svg12" />
  <path
     d="m 104.86803,202.53762 c 6.83853,0 12.38239,5.54386 12.38239,12.3824 v 53.11708 c 0,6.83854 -5.54386,12.38153 -12.38239,12.38153 -6.837658,0 -12.381525,-5.54299 -12.381525,-12.38153 v -53.11708 c 0,-6.83767 5.543867,-12.38153 12.381525,-12.38153 z"
     id="path2"
     inkscape:connector-curvature="0"
     style="fill:#a4c639;stroke-width:0.86948913" />
  <path
     d="m 76.600069,138.67625 c -0.04086,0.46953 -0.07652,0.94426 -0.07652,1.42422 v 80.47731 c 0,8.65489 6.850704,15.62732 15.355178,15.62732 h 81.839793 c 8.50535,0 15.35604,-6.9733 15.35604,-15.62732 v -80.47731 c 0,-0.47996 -0.0174,-0.95644 -0.0574,-1.42422 z"
     id="path4"
     inkscape:connector-curvature="0"
     style="fill:#a4c639;stroke-width:0.86948913" />
  <path
     d="m 160.73097,202.53762 c 6.83853,0 12.38239,5.54386 12.38239,12.3824 v 53.11708 c 0,6.83854 -5.54386,12.38153 -12.38239,12.38153 -6.83766,0 -12.38153,-5.54299 -12.38153,-12.38153 v -53.11708 c 0,-6.83767 5.54387,-12.38153 12.38153,-12.38153 z M 56.628772,145.83823 c 6.837663,0 12.381526,5.54386 12.381526,12.3824 v 53.11708 c 0,6.83854 -5.543863,12.3824 -12.381526,12.3824 -6.838532,0 -12.382395,-5.54386 -12.382395,-12.38153 v -53.11709 c -8.69e-4,-6.83853 5.542993,-12.38326 12.382395,-12.38326 z m 152.342328,0 c 6.83766,0 12.38152,5.54386 12.38152,12.3824 v 53.11708 c 0,6.83854 -5.54386,12.3824 -12.38152,12.3824 -6.83854,0 -12.3824,-5.54386 -12.3824,-12.38153 v -53.11709 c 0,-6.83853 5.54386,-12.38326 12.3824,-12.38326 z M 76.961776,133.38976 C 77.306094,108.67017 98.881594,88.402384 126.57656,85.731314 h 12.44413 c 27.69671,2.67194 49.27048,22.940596 49.6148,47.658446 z"
     id="path6"
     inkscape:connector-curvature="0"
     style="fill:#a4c639;stroke-width:0.86948913" />
  <path
     d="M 81.268356,83.345435 94.329822,105.96954 M 184.33151,83.345435 171.26918,105.96954"
     id="path8"
     inkscape:connector-curvature="0"
     style="fill:none;stroke:#a4c639;stroke-width:2.60846734;stroke-linecap:round;stroke-linejoin:round" />
  <path
     d="m 116.1653,111.23691 c 0.0104,3.45535 -2.84932,6.26467 -6.38813,6.27423 -3.53709,0.008 -6.41336,-2.7841 -6.42379,-6.23946 v -0.0348 c -0.01,-3.45623 2.85018,-6.26467 6.38814,-6.27424 3.53708,-0.01 6.41335,2.78237 6.42378,6.23946 z m 47.81843,0 c 0.0104,3.45535 -2.84932,6.26467 -6.38814,6.27423 -3.53708,0.008 -6.41335,-2.7841 -6.42378,-6.23946 v -0.0348 c -0.01,-3.45623 2.85018,-6.26467 6.38813,-6.27424 3.53708,-0.01 6.41336,2.78237 6.42379,6.23946 z"
     id="path10"
     inkscape:connector-curvature="0"
     style="fill:#ffffff;stroke-width:0.86948913" />
</svg>
