<?xml version="1.0" encoding="UTF-8" standalone="no"?>
<svg
   xmlns:dc="http://purl.org/dc/elements/1.1/"
   xmlns:cc="http://creativecommons.org/ns#"
   xmlns:rdf="http://www.w3.org/1999/02/22-rdf-syntax-ns#"
   xmlns:svg="http://www.w3.org/2000/svg"
   xmlns="http://www.w3.org/2000/svg"
   xmlns:sodipodi="http://sodipodi.sourceforge.net/DTD/sodipodi-0.dtd"
   xmlns:inkscape="http://www.inkscape.org/namespaces/inkscape"
   width="2490"
   height="2500"
   viewBox="0 0 256 257"
   preserveAspectRatio="xMinYMin meet"
   version="1.1"
   id="svg25"
   sodipodi:docname="chrome.svg"
   inkscape:version="0.92.4 (fd57863, 2020-04-02)">
  <metadata
     id="metadata29">
    <rdf:RDF>
      <cc:Work
         rdf:about="">
        <dc:format>image/svg+xml</dc:format>
        <dc:type
           rdf:resource="http://purl.org/dc/dcmitype/StillImage" />
      </cc:Work>
    </rdf:RDF>
  </metadata>
  <sodipodi:namedview
     pagecolor="#ffffff"
     bordercolor="#666666"
     borderopacity="1"
     objecttolerance="10"
     gridtolerance="10"
     guidetolerance="10"
     inkscape:pageopacity="0"
     inkscape:pageshadow="2"
     inkscape:window-width="1853"
     inkscape:window-height="1025"
     id="namedview27"
     showgrid="false"
     inkscape:zoom="0.0944"
     inkscape:cx="1245"
     inkscape:cy="1250"
     inkscape:window-x="67"
     inkscape:window-y="27"
     inkscape:window-maximized="1"
     inkscape:current-layer="svg25" />
  <defs
     id="defs7">
    <linearGradient
       x1="127.4696"
       y1="82.259241"
       x2="127.4696"
       y2="173.66645"
       id="a"
       gradientUnits="userSpaceOnUse"
       gradientTransform="matrix(0.88516629,0,0,0.88516629,16.316312,16.337943)">
      <stop
         stop-color="#86BBE5"
         offset="0%"
         id="stop2" />
      <stop
         stop-color="#1072BA"
         offset="100%"
         id="stop4" />
    </linearGradient>
  </defs>
  <path
     d="m 129.43083,16.368925 c 0,0 66.67072,-2.991862 102.01806,64.022307 h -107.6911 c 0,0 -20.32341,-0.655023 -37.684178,24.000398 -4.987028,10.34848 -10.347595,21.00853 -4.332004,42.01708 C 73.07583,131.72733 35.73509,66.708332 35.73509,66.708332 c 0,0 26.338123,-47.690105 93.69485,-50.339407 z"
     id="path9"
     inkscape:connector-curvature="0"
     style="fill:#ef3f36;stroke-width:0.88516629" />
  <path
     d="m 227.98879,186.49257 c 0,0 -30.76485,59.25303 -106.44391,56.32313 9.3509,-16.1773 53.8606,-93.25934 53.8606,-93.25934 0,0 10.75389,-17.26783 -1.93232,-44.63451 -6.45286,-9.50669 -13.02965,-19.449763 -34.22406,-24.749254 17.05006,-0.154904 92.01302,0 92.01302,0 0,0 28.0828,46.661544 -3.27333,106.319974 z"
     id="path11"
     inkscape:connector-curvature="0"
     style="fill:#fcd900;stroke-width:0.88516629" />
  <path
     d="m 31.340239,186.95994 c 0,0 -35.9386362,-56.26116 4.456813,-120.345436 9.319915,16.177299 53.829617,93.259346 53.829617,93.259346 0,0 9.600514,17.95383 39.616501,20.63323 11.43989,-0.84091 23.34626,-1.55789 38.55784,-17.23596 -8.38606,14.83716 -46.00829,79.66939 -46.00829,79.66939 0,0 -54.483748,0.99759 -90.453366,-55.98057 z"
     id="path13"
     inkscape:connector-curvature="0"
     style="fill:#61bc5b;stroke-width:0.88516629" />
  <path
     d="m 121.5139,243.3769 15.14785,-63.21149 c 0,0 16.64467,-1.31005 30.60905,-16.61369 -8.66578,15.24256 -45.7569,79.82518 -45.7569,79.82518 z"
     id="path15"
     inkscape:connector-curvature="0"
     style="fill:#5ab055;stroke-width:0.88516629" />
  <path
     d="m 78.686899,130.57397 c 0,-27.86504 22.598291,-50.463336 50.463331,-50.463336 27.86503,0 50.46333,22.598296 50.46333,50.463336 0,27.86591 -22.5983,50.46333 -50.46333,50.46333 -27.86504,-0.031 -50.463331,-22.59742 -50.463331,-50.46333 z"
     id="path17"
     inkscape:connector-curvature="0"
     style="fill:#ffffff;stroke-width:0.88516629" />
  <path
     d="m 87.133156,130.57397 c 0,-23.18959 18.795624,-42.016194 42.017074,-42.016194 23.18958,0 42.01619,18.795624 42.01619,42.016194 0,23.19046 -18.79474,42.01706 -42.01619,42.01706 -23.19047,0 -42.017074,-18.8266 -42.017074,-42.01706 z"
     id="path19"
     style="fill:url(#a);stroke-width:0.88516629"
     inkscape:connector-curvature="0" />
  <path
     d="m 231.23027,80.204462 -62.3706,18.296387 c 0,0 -9.41286,-13.808594 -29.64156,-18.296387 17.54842,-0.09383 92.01216,0 92.01216,0 z"
     id="path21"
     inkscape:connector-curvature="0"
     style="fill:#eaca05;stroke-width:0.88516629" />
  <path
     d="M 80.526274,144.10196 C 71.766669,128.92224 35.73509,66.708332 35.73509,66.708332 l 46.193288,45.694058 c 0,0 -4.738295,9.75629 -2.960882,23.7198 l 1.557893,7.97977 z"
     id="path23"
     inkscape:connector-curvature="0"
     style="fill:#df3a32;stroke-width:0.88516629" />
</svg>
