<?xml version="1.0" encoding="UTF-8" standalone="no"?>
<svg
   xmlns:dc="http://purl.org/dc/elements/1.1/"
   xmlns:cc="http://creativecommons.org/ns#"
   xmlns:rdf="http://www.w3.org/1999/02/22-rdf-syntax-ns#"
   xmlns:svg="http://www.w3.org/2000/svg"
   xmlns="http://www.w3.org/2000/svg"
   xmlns:sodipodi="http://sodipodi.sourceforge.net/DTD/sodipodi-0.dtd"
   xmlns:inkscape="http://www.inkscape.org/namespaces/inkscape"
   width="1773"
   height="2500"
   viewBox="0 0 256 361"
   preserveAspectRatio="xMidYMid"
   version="1.1"
   id="svg12"
   sodipodi:docname="css.svg"
   inkscape:version="0.92.4 (fd57863, 2020-04-02)">
  <metadata
     id="metadata18">
    <rdf:RDF>
      <cc:Work
         rdf:about="">
        <dc:format>image/svg+xml</dc:format>
        <dc:type
           rdf:resource="http://purl.org/dc/dcmitype/StillImage" />
      </cc:Work>
    </rdf:RDF>
  </metadata>
  <defs
     id="defs16" />
  <sodipodi:namedview
     pagecolor="#ffffff"
     bordercolor="#666666"
     borderopacity="1"
     objecttolerance="10"
     gridtolerance="10"
     guidetolerance="10"
     inkscape:pageopacity="0"
     inkscape:pageshadow="2"
     inkscape:window-width="759"
     inkscape:window-height="480"
     id="namedview14"
     showgrid="false"
     inkscape:zoom="0.0944"
     inkscape:cx="886.5"
     inkscape:cy="1250"
     inkscape:window-x="67"
     inkscape:window-y="27"
     inkscape:window-maximized="0"
     inkscape:current-layer="svg12" />
  <path
     d="M 127.86918,331.02444 40.504737,306.77117 21.035535,88.406175 H 234.96446 L 215.47514,306.73762 Z"
     id="path2"
     inkscape:connector-curvature="0"
     style="fill:#264de4;stroke-width:0.83857524" />
  <path
     d="m 198.79001,292.83489 16.6541,-186.57461 H 128 v 206.19978 z"
     id="path4"
     inkscape:connector-curvature="0"
     style="fill:#2965f1;stroke-width:0.83857524" />
  <path
     d="m 65.667864,187.24904 2.400002,26.78158 H 128 v -26.78158 z m -4.823485,-54.20634 2.434384,26.78157 H 128 V 133.0427 Z M 128,256.80382 l -0.1174,0.031 -29.826445,-8.05368 -1.90692,-21.35935 H 69.264513 l 3.751786,42.0512 54.860431,15.22852 L 128,284.668 Z"
     id="path6"
     inkscape:connector-curvature="0"
     style="fill:#ebebeb;stroke-width:0.83857524" />
  <path
     d="M 71.382754,29.063559 H 103.81884 V 42.628352 H 84.947547 V 56.193146 H 103.82052 V 69.7571 H 71.382754 Z m 38.924146,0 h 32.43693 v 11.7954 h -18.87214 v 2.358912 h 18.87214 V 70.347457 H 110.30774 V 57.960862 h 18.87214 V 55.60195 H 110.30606 V 29.063559 Z m 38.92499,0 h 32.43693 v 11.7954 h -18.87214 v 2.358912 h 18.87214 V 70.347457 H 149.23189 V 57.960862 h 18.87213 V 55.60195 H 149.23273 V 29.063559 Z"
     id="path8"
     inkscape:connector-curvature="0"
     style="stroke-width:0.83857524" />
  <path
     d="m 190.16107,187.24904 4.83438,-54.20634 h -67.08769 v 26.78157 h 37.73756 l -2.4369,27.42477 h -35.30066 v 26.78158 h 32.97865 l -3.10944,34.73378 -29.87005,8.06206 v 27.86251 l 54.90403,-15.21595 0.40252,-4.52495 6.29435,-70.50741 z"
     id="path10"
     inkscape:connector-curvature="0"
     style="fill:#ffffff;stroke-width:0.83857524" />
</svg>
