<?xml version="1.0" encoding="UTF-8" standalone="no"?>
<svg
   xmlns:dc="http://purl.org/dc/elements/1.1/"
   xmlns:cc="http://creativecommons.org/ns#"
   xmlns:rdf="http://www.w3.org/1999/02/22-rdf-syntax-ns#"
   xmlns:svg="http://www.w3.org/2000/svg"
   xmlns="http://www.w3.org/2000/svg"
   xmlns:sodipodi="http://sodipodi.sourceforge.net/DTD/sodipodi-0.dtd"
   xmlns:inkscape="http://www.inkscape.org/namespaces/inkscape"
   width="3323.8835"
   height="1563.0223"
   viewBox="0 0 340.36567 160.00608"
   preserveAspectRatio="xMinYMin meet"
   version="1.1"
   id="svg6"
   sodipodi:docname="git.svg"
   inkscape:version="0.92.4 (fd57863, 2020-04-02)">
  <metadata
     id="metadata12">
    <rdf:RDF>
      <cc:Work
         rdf:about="">
        <dc:format>image/svg+xml</dc:format>
        <dc:type
           rdf:resource="http://purl.org/dc/dcmitype/StillImage" />
        <dc:title></dc:title>
      </cc:Work>
    </rdf:RDF>
  </metadata>
  <defs
     id="defs10" />
  <sodipodi:namedview
     pagecolor="#ffffff"
     bordercolor="#666666"
     borderopacity="1"
     objecttolerance="10"
     gridtolerance="10"
     guidetolerance="10"
     inkscape:pageopacity="0"
     inkscape:pageshadow="2"
     inkscape:window-width="1853"
     inkscape:window-height="1025"
     id="namedview8"
     showgrid="false"
     fit-margin-top="150"
     fit-margin-left="150"
     fit-margin-right="150"
     fit-margin-bottom="150"
     inkscape:zoom="0.098994949"
     inkscape:cx="4413.3108"
     inkscape:cy="2284.743"
     inkscape:window-x="67"
     inkscape:window-y="27"
     inkscape:window-maximized="1"
     inkscape:current-layer="svg6" />
  <path
     d="m 200.93329,59.382079 c -6.78932,0 -11.84525,3.33341 -11.84525,11.356393 0,6.044528 3.33221,10.241613 11.4789,10.241613 6.9058,0 11.59657,-4.069716 11.59657,-10.492713 0,-7.278183 -4.19706,-11.105293 -11.23022,-11.105293 z m -13.5738,56.649731 c -1.60729,1.97117 -3.20848,4.06729 -3.20848,6.53823 0,4.93339 6.29078,6.41814 14.93242,6.41814 7.15685,0 16.9072,-0.5022 16.9072,-7.15688 0,-3.95569 -4.69079,-4.19951 -10.61764,-4.57069 z m 36.52798,-56.27733 c 2.2174,2.838492 4.56585,6.789332 4.56585,12.465099 0,13.697539 -10.73656,21.718095 -26.28275,21.718095 -3.95326,0 -7.53171,-0.492492 -9.75032,-1.108709 l -4.07458,6.538232 12.09269,0.739953 c 21.35176,1.36101 33.93454,1.97966 33.93454,18.38589 0,14.19487 -12.46027,22.2118 -33.93454,22.2118 -22.33553,0 -30.85099,-5.67698 -30.85099,-15.42489 0,-5.55325 2.46852,-8.50941 6.78811,-12.58883 -4.07334,-1.72129 -5.4295,-4.80481 -5.4295,-8.13943 0,-2.71719 1.35616,-5.183279 3.58084,-7.530493 2.21985,-2.341147 4.68717,-4.688361 7.64937,-7.403122 -6.04574,-2.962222 -10.614,-9.379151 -10.614,-18.513272 0,-14.188812 9.38035,-23.934301 28.25752,-23.934301 5.30824,0 8.51791,0.487641 11.35641,1.233654 h 24.06652 V 58.88959 Z m 33.06599,-22.42529 c -7.03557,0 -11.10771,-4.075782 -11.10771,-11.112573 0,-7.027083 4.07092,-10.856617 11.10771,-10.856617 7.15686,0 11.23022,3.829534 11.23022,10.856617 0,7.036791 -4.07212,11.112573 -11.23022,11.112573 z m -15.92224,74.16103 v -9.74427 l 6.29563,-0.86125 c 1.72855,-0.24867 1.97361,-0.61744 1.97361,-2.472157 V 62.130808 c 0,-1.353741 -0.36879,-2.222275 -1.60726,-2.588609 l -6.66198,-2.347213 1.35616,-9.992941 h 25.54763 v 51.210498 c 0,1.977237 0.11893,2.223487 1.97605,2.473367 l 6.29319,0.86125 v 9.74306 z m 83.97445,-4.78419 c -5.3082,2.58982 -13.08252,4.93461 -20.11933,4.93461 -14.68494,0 -20.23577,-5.91716 -20.23577,-19.869438 V 59.442731 c 0,-0.73995 0,-1.233651 -0.99105,-1.233651 h -8.63676 V 47.222666 c 10.86268,-1.237293 15.17864,-6.666815 16.53604,-20.118109 h 11.72515 v 17.52829 c 0,0.861248 0,1.233651 0.98861,1.233651 h 17.39847 v 12.340155 h -18.38708 v 29.492406 c 0,7.28061 1.72977,10.116672 8.39053,10.116672 3.45956,0 7.03435,-0.861251 9.99535,-1.972386 z"
     id="path2"
     inkscape:connector-curvature="0"
     style="fill:#2f2707;stroke-width:1.2130301"
     sodipodi:nodetypes="ssssscssscccsscccssscsccssccccssssscccssccccscccccssssccccsscccsscc" />
  <path
     d="M 142.15592,74.321761 85.730581,17.900083 a 8.3213875,8.3213875 0 0 0 -11.770028,0 l -11.71666,11.717872 14.863258,14.862049 a 9.8801317,9.8801317 0 0 1 10.168835,2.369049 9.8946882,9.8946882 0 0 1 2.348421,10.230696 l 14.322263,14.324674 c 3.46562,-1.193621 7.46498,-0.420921 10.2319,2.350851 a 9.89954,9.89954 0 0 1 0,14.004437 A 9.9031794,9.9031794 0 0 1 98.016149,76.988002 L 84.65827,63.630115 84.65707,98.78373 a 10.005073,10.005073 0 0 1 2.618928,1.87292 9.9031794,9.9031794 0 0 1 0,14.00686 c -3.869558,3.86956 -10.140926,3.86956 -14.004433,0 A 9.9031794,9.9031794 0 0 1 76.512807,98.496241 V 63.015106 a 9.7818762,9.7818762 0 0 1 -3.241218,-2.16162 C 70.340901,57.926443 69.636136,53.62625 71.13786,50.027192 L 56.48689,35.373784 17.798496,74.059746 a 8.325027,8.325027 0 0 0 0,11.773671 l 56.425317,56.422893 a 8.3238136,8.3238136 0 0 0 11.770029,0 L 142.15592,86.096645 a 8.3286662,8.3286662 0 0 0 0,-11.774884"
     id="path4"
     inkscape:connector-curvature="0"
     style="fill:#de4c36;stroke-width:1.2130301" />
</svg>
