<?xml version="1.0" encoding="UTF-8" standalone="no"?>
<svg
   xmlns:dc="http://purl.org/dc/elements/1.1/"
   xmlns:cc="http://creativecommons.org/ns#"
   xmlns:rdf="http://www.w3.org/1999/02/22-rdf-syntax-ns#"
   xmlns:svg="http://www.w3.org/2000/svg"
   xmlns="http://www.w3.org/2000/svg"
   xmlns:sodipodi="http://sodipodi.sourceforge.net/DTD/sodipodi-0.dtd"
   xmlns:inkscape="http://www.inkscape.org/namespaces/inkscape"
   width="1562.046"
   height="1562.0272"
   viewBox="0 0 159.95351 159.90421"
   preserveAspectRatio="xMinYMin meet"
   version="1.1"
   id="svg6"
   sodipodi:docname="git.svg"
   inkscape:version="0.92.4 (fd57863, 2020-04-02)">
  <metadata
     id="metadata12">
    <rdf:RDF>
      <cc:Work
         rdf:about="">
        <dc:format>image/svg+xml</dc:format>
        <dc:type
           rdf:resource="http://purl.org/dc/dcmitype/StillImage" />
        <dc:title></dc:title>
      </cc:Work>
    </rdf:RDF>
  </metadata>
  <defs
     id="defs10" />
  <sodipodi:namedview
     pagecolor="#ffffff"
     bordercolor="#666666"
     borderopacity="1"
     objecttolerance="10"
     gridtolerance="10"
     guidetolerance="10"
     inkscape:pageopacity="0"
     inkscape:pageshadow="2"
     inkscape:window-width="3373"
     inkscape:window-height="1385"
     id="namedview8"
     showgrid="false"
     fit-margin-top="150"
     fit-margin-left="150"
     fit-margin-right="150"
     fit-margin-bottom="150"
     inkscape:zoom="0.098994949"
     inkscape:cx="2635.4423"
     inkscape:cy="2284.743"
     inkscape:window-x="67"
     inkscape:window-y="27"
     inkscape:window-maximized="1"
     inkscape:current-layer="svg6" />
  <path
     d="M 142.15592,74.21986 85.730581,17.798182 a 8.3213875,8.3213875 0 0 0 -11.770028,0 l -11.71666,11.717872 14.863258,14.862049 a 9.8801317,9.8801317 0 0 1 10.168835,2.369049 9.8946882,9.8946882 0 0 1 2.348421,10.230696 l 14.322263,14.324674 c 3.46562,-1.193621 7.46498,-0.420921 10.2319,2.350851 a 9.89954,9.89954 0 0 1 0,14.004437 A 9.9031794,9.9031794 0 0 1 98.016149,76.886101 L 84.65827,63.528214 84.65707,98.681829 a 10.005073,10.005073 0 0 1 2.618928,1.872921 9.9031794,9.9031794 0 0 1 0,14.00686 c -3.869558,3.86956 -10.140926,3.86956 -14.004433,0 A 9.9031794,9.9031794 0 0 1 76.512807,98.39434 V 62.913205 a 9.7818762,9.7818762 0 0 1 -3.241218,-2.16162 C 70.340901,57.824542 69.636136,53.524349 71.13786,49.925291 L 56.48689,35.271883 17.798496,73.957845 a 8.325027,8.325027 0 0 0 0,11.773671 l 56.425317,56.422894 a 8.3238136,8.3238136 0 0 0 11.770029,0 L 142.15592,85.994744 a 8.3286662,8.3286662 0 0 0 0,-11.774884"
     id="path4"
     inkscape:connector-curvature="0"
     style="fill:#de4c36;stroke-width:1.2130301" />
</svg>
