<?xml version="1.0" encoding="UTF-8" standalone="no"?>
<svg
   xmlns:dc="http://purl.org/dc/elements/1.1/"
   xmlns:cc="http://creativecommons.org/ns#"
   xmlns:rdf="http://www.w3.org/1999/02/22-rdf-syntax-ns#"
   xmlns:svg="http://www.w3.org/2000/svg"
   xmlns="http://www.w3.org/2000/svg"
   xmlns:xlink="http://www.w3.org/1999/xlink"
   xmlns:sodipodi="http://sodipodi.sourceforge.net/DTD/sodipodi-0.dtd"
   xmlns:inkscape="http://www.inkscape.org/namespaces/inkscape"
   width="2462"
   height="2500"
   viewBox="0 0 256 259.3"
   preserveAspectRatio="xMinYMin meet"
   version="1.1"
   id="svg28"
   sodipodi:docname="github-octocat.svg"
   inkscape:version="0.92.4 (fd57863, 2020-04-02)">
  <metadata
     id="metadata32">
    <rdf:RDF>
      <cc:Work
         rdf:about="">
        <dc:format>image/svg+xml</dc:format>
        <dc:type
           rdf:resource="http://purl.org/dc/dcmitype/StillImage" />
      </cc:Work>
    </rdf:RDF>
  </metadata>
  <sodipodi:namedview
     pagecolor="#ffffff"
     bordercolor="#666666"
     borderopacity="1"
     objecttolerance="10"
     gridtolerance="10"
     guidetolerance="10"
     inkscape:pageopacity="0"
     inkscape:pageshadow="2"
     inkscape:window-width="1853"
     inkscape:window-height="1025"
     id="namedview30"
     showgrid="false"
     inkscape:zoom="0.0944"
     inkscape:cx="1231"
     inkscape:cy="1250"
     inkscape:window-x="67"
     inkscape:window-y="27"
     inkscape:window-maximized="1"
     inkscape:current-layer="svg28" />
  <path
     d="m 189.47308,203.73437 c 0,11.7212 -27.15272,21.16563 -60.62983,21.16563 -33.477109,0 -60.629829,-9.52875 -60.629829,-21.16563 0,-11.72121 27.15272,-21.16563 60.629829,-21.16563 33.47711,0 60.62983,9.44442 60.62983,21.16563 z m 0,0"
     id="path2"
     inkscape:connector-curvature="0"
     style="fill:#9edcf2;stroke-width:0.84325218" />
  <defs
     id="defs5">
    <path
       id="a"
       d="M98.1 244.8c1.6 7.5 5.5 11.9 9.4 14.5h41.1c5-3.4 10.1-9.8 10.1-21.8v-31s.6-7.7 7.7-10.2c0 0 4.1-2.9-.3-4.5 0 0-19.5-1.6-19.5 14.4v23.6s.8 8.7-3.8 12.3v-29.2s.3-9.3 5.1-12.8c0 0 3.2-5.7-3.8-4.2 0 0-13.4 1.9-14 17.6l-.3 30h-3.2l-.3-30c-.6-15.6-14-17.6-14-17.6-7-1.6-3.8 4.2-3.8 4.2 4.8 3.5 5.1 12.8 5.1 12.8v29.5c-4.6-3.3-3.8-12.6-3.8-12.6v-23.6c0-16-19.5-14.4-19.5-14.4-4.5 1.6-.3 4.5-.3 4.5 7 2.6 7.7 10.2 7.7 10.2v21.7l.4 16.6z" />
  </defs>
  <clipPath
     id="b">
    <use
       xlink:href="#a"
       overflow="visible"
       id="use7" />
  </clipPath>
  <path
     clip-path="url(#b)"
     d="m 200.9,199.8 c 0,13.9 -32.2,25.1 -71.9,25.1 -39.7,0 -71.9,-11.3 -71.9,-25.1 0,-13.9 32.2,-25.1 71.9,-25.1 39.7,0 71.9,11.2 71.9,25.1 z m 0,0"
     id="path10"
     inkscape:connector-curvature="0"
     transform="matrix(0.84325217,0,0,0.84325217,20.063722,35.252587)"
     style="fill:#7dbce7" />
  <path
     d="m 59.612249,141.41803 -1.770829,6.07142 c 0,0 -0.421627,2.19245 1.602179,2.61408 2.192455,-0.0843 2.023805,-2.10813 1.855154,-2.69841 z m 0,0"
     id="path12"
     inkscape:connector-curvature="0"
     style="fill:#9edcf2;stroke-width:0.84325218" />
  <path
     d="m 235.76763,115.86749 0.16865,-0.75892 c -17.79262,-3.54166 -36.00687,-3.62599 -47.05347,-3.12004 1.77083,-6.49304 2.3611,-14.082307 2.3611,-22.430503 0,-12.058506 -4.55356,-21.671581 -11.80553,-28.92355 1.26488,-4.131935 2.95138,-13.323384 -1.6865,-25.044589 0,0 -8.26387,-2.614082 -27.0684,9.950375 -7.33629,-1.855154 -15.17854,-2.782732 -23.02078,-2.782732 -8.60117,0 -17.28667,1.096228 -25.46622,3.288684 C 82.801684,32.807156 74.284837,35.505563 74.284837,35.505563 68.719372,49.419223 72.176706,59.791225 73.188609,62.320982 66.611242,69.4043 62.647957,78.427098 62.647957,89.473701 c 0,8.348197 0.927577,15.853139 3.288683,22.346179 -11.130928,-0.42162 -28.670573,-0.25297 -45.872918,3.20436 l 0.168651,0.75893 c 17.202344,-3.45733 34.91064,-3.54166 45.957243,-3.12003 0.505951,1.3492 1.096228,2.6984 1.686504,3.96328 -10.962278,0.3373 -29.598151,1.77083 -47.475097,6.83034 l 0.252976,0.75893 c 18.045596,-5.05952 36.85012,-6.40872 47.728073,-6.74602 6.577367,12.14283 19.3948,20.0694 42.331258,22.51483 -3.28868,2.19246 -6.57737,5.90277 -7.92657,12.22716 -4.469236,2.10813 -18.467222,7.33629 -26.899744,-7.16764 0,0 -4.722212,-8.60118 -13.74501,-9.27578 0,0 -8.769823,-0.16865 -0.590277,5.48114 0,0 5.81844,2.78273 9.86605,13.15473 0,0 5.312489,17.7083 30.694381,11.97419 v 18.12992 c 0,0 -0.50595,6.49304 -6.493043,8.60117 0,0 -3.541659,2.44543 0.252975,3.79463 0,0 16.443418,1.34921 16.443418,-12.14283 v -19.90075 c 0,0 -0.6746,-7.92657 3.20436,-10.62498 v 32.71819 c 0,0 -0.25298,7.84224 -4.30059,10.79363 0,0 -2.69841,4.80653 3.20436,3.54166 0,0 11.29958,-1.60218 11.80553,-14.84124 l 0.25298,-33.13981 h 2.6984 l 0.25298,33.13981 c 0.50595,13.15473 11.80553,14.84124 11.80553,14.84124 5.90276,1.3492 3.20436,-3.54166 3.20436,-3.54166 -4.04761,-2.95139 -4.30059,-10.79363 -4.30059,-10.79363 v -32.46521 c 3.87896,3.03571 3.20436,10.372 3.20436,10.372 v 19.90075 c 0,13.49204 16.44342,12.14283 16.44342,12.14283 3.79463,-1.3492 0.25297,-3.79463 0.25297,-3.79463 -5.90276,-2.19246 -6.49304,-8.60117 -6.49304,-8.60117 V 158.3674 c 0,-10.20335 -4.30059,-15.60017 -8.51685,-18.3829 24.45432,-2.44543 36.17552,-10.28767 41.57234,-22.59915 10.7093,0.25297 30.01977,1.60217 48.40267,6.83034 l 0.25298,-0.75893 c -18.29858,-5.14384 -37.4404,-6.49304 -48.31835,-6.83034 0.50595,-1.26488 0.92757,-2.52975 1.3492,-3.87896 11.29958,-0.42162 29.59815,-0.42162 47.4751,3.12003 z m 0,0"
     id="path14"
     inkscape:connector-curvature="0"
     style="fill:#010101;stroke-width:0.84325218" />
  <path
     d="m 167.29555,88.96775 c 5.22816,4.806537 8.3482,10.540652 8.3482,16.69639 0,29.00787 -21.58726,29.7668 -48.23403,29.7668 -26.64677,0 -48.234021,-4.04761 -48.234021,-29.7668 0,-6.155738 3.035708,-11.889853 8.263872,-16.612065 8.685497,-7.92657 23.358089,-3.710309 39.970149,-3.710309 16.61207,0 31.20033,-4.300586 39.88583,3.625984 z m 0,0"
     id="path16"
     inkscape:connector-curvature="0"
     style="fill:#f5ccb3;stroke-width:0.84325218" />
  <path
     d="m 111.38793,107.182 c 0,8.01089 -4.46923,14.41961 -10.0347,14.41961 -5.565463,0 -10.034699,-6.49304 -10.034699,-14.41961 0,-8.010899 4.469236,-14.419615 10.034699,-14.419615 5.56547,-0.08432 10.0347,6.408716 10.0347,14.419615 z m 0,0"
     id="path18"
     inkscape:connector-curvature="0"
     style="fill:#ffffff;stroke-width:0.84325218" />
  <path
     d="m 108.18357,107.35065 c 0,5.31249 -3.0357,9.61307 -6.66169,9.61307 -3.710308,0 -6.66169,-4.30058 -6.66169,-9.61307 0,-5.31249 3.035708,-9.613077 6.66169,-9.613077 3.62599,0 6.66169,4.300587 6.66169,9.613077 z m 0,0"
     id="path20"
     inkscape:connector-curvature="0"
     style="fill:#af5c51;stroke-width:0.84325218" />
  <path
     d="m 165.27175,107.182 c 0,8.01089 -4.46924,14.41961 -10.0347,14.41961 -5.56547,0 -10.03471,-6.49304 -10.03471,-14.41961 0,-8.010899 4.46924,-14.419615 10.03471,-14.419615 5.48113,-0.08432 10.0347,6.408716 10.0347,14.419615 z m 0,0"
     id="path22"
     inkscape:connector-curvature="0"
     style="fill:#ffffff;stroke-width:0.84325218" />
  <path
     d="m 161.98306,107.35065 c 0,5.31249 -3.03571,9.61307 -6.66169,9.61307 -3.71031,0 -6.66169,-4.30058 -6.66169,-9.61307 0,-5.31249 3.03571,-9.613077 6.66169,-9.613077 3.71031,0 6.66169,4.300587 6.66169,9.613077 z m 0,0 m -31.87493,12.64878 c 0,1.3492 -1.09623,2.52975 -2.52976,2.52975 -1.3492,0 -2.52975,-1.09623 -2.52975,-2.52975 0,-1.43353 1.09623,-2.52976 2.52975,-2.52976 1.34921,0 2.52976,1.09623 2.52976,2.52976 z m 0,0 m -8.3482,6.32439 c -0.16865,-0.42163 0.0843,-0.84325 0.50596,-1.01191 0.42162,-0.16865 0.84325,0.0843 1.0119,0.50596 0.6746,1.85515 2.3611,3.0357 4.30058,3.0357 1.93948,0 3.62599,-1.26487 4.30059,-3.0357 0.16865,-0.42163 0.59028,-0.67461 1.0119,-0.50596 0.42163,0.16866 0.6746,0.59028 0.50595,1.01191 -0.84325,2.44543 -3.20435,4.13193 -5.81844,4.13193 -2.61408,0 -4.97518,-1.6865 -5.81844,-4.13193 z m 0,0"
     id="path24"
     inkscape:connector-curvature="0"
     style="fill:#af5c51;stroke-width:0.84325218" />
  <path
     d="m 66.020966,137.79205 c 0,0.6746 -0.758927,1.18055 -1.77083,1.18055 -0.927577,0 -1.77083,-0.50595 -1.77083,-1.18055 0,-0.67461 0.758927,-1.18056 1.77083,-1.18056 1.011903,0 1.77083,0.50595 1.77083,1.18056 z m 0,0 m 4.890862,2.6984 c 0,0.67461 -0.758927,1.18056 -1.770829,1.18056 -0.927578,0 -1.77083,-0.50595 -1.77083,-1.18056 0,-0.6746 0.758927,-1.18055 1.77083,-1.18055 1.011902,0 1.770829,0.50595 1.770829,1.18055 z m 0,0 m 2.951383,3.54166 c 0,0.6746 -0.758927,1.18056 -1.77083,1.18056 -0.927577,0 -1.770829,-0.50596 -1.770829,-1.18056 0,-0.6746 0.758927,-1.18055 1.770829,-1.18055 1.011903,-0.0843 1.77083,0.50595 1.77083,1.18055 z m 0,0 m 2.698407,4.04761 c 0,0.6746 -0.758927,1.18056 -1.77083,1.18056 -0.927577,0 -1.770829,-0.50596 -1.770829,-1.18056 0,-0.6746 0.758927,-1.18055 1.770829,-1.18055 1.011903,-0.0843 1.77083,0.50595 1.77083,1.18055 z m 0,0 m 2.951382,3.71031 c 0,0.6746 -0.758927,1.18056 -1.770829,1.18056 -0.927578,0 -1.77083,-0.50596 -1.77083,-1.18056 0,-0.6746 0.758927,-1.18055 1.77083,-1.18055 1.011902,0 1.770829,0.50595 1.770829,1.18055 z m 0,0 m 4.047611,3.28869 c 0,0.6746 -0.758927,1.18055 -1.77083,1.18055 -0.927577,0 -1.770829,-0.50595 -1.770829,-1.18055 0,-0.67461 0.758927,-1.18056 1.770829,-1.18056 1.011903,-0.0843 1.77083,0.50595 1.77083,1.18056 z m 0,0 m 5.649789,2.10813 c 0,0.6746 -0.758927,1.18055 -1.770829,1.18055 -0.927578,0 -1.77083,-0.50595 -1.77083,-1.18055 0,-0.67461 0.758927,-1.18056 1.77083,-1.18056 1.011902,0 1.770829,0.50595 1.770829,1.18056 z m 0,0 m 5.64979,0 c 0,0.6746 -0.758927,1.18055 -1.77083,1.18055 -0.927577,0 -1.770829,-0.50595 -1.770829,-1.18055 0,-0.67461 0.758927,-1.18056 1.770829,-1.18056 1.011903,0 1.77083,0.50595 1.77083,1.18056 z m 0,0 m 5.73411,-0.92758 c 0,0.6746 -0.758922,1.18055 -1.770825,1.18055 -0.927577,0 -1.77083,-0.50595 -1.77083,-1.18055 0,-0.6746 0.758927,-1.18055 1.77083,-1.18055 0.927577,0 1.770825,0.50595 1.770825,1.18055 z m 0,0"
     id="path26"
     inkscape:connector-curvature="0"
     style="fill:#c4e5d9;stroke-width:0.84325218" />
</svg>
