<?xml version="1.0" encoding="UTF-8" standalone="no"?>
<svg
   xmlns:dc="http://purl.org/dc/elements/1.1/"
   xmlns:cc="http://creativecommons.org/ns#"
   xmlns:rdf="http://www.w3.org/1999/02/22-rdf-syntax-ns#"
   xmlns:svg="http://www.w3.org/2000/svg"
   xmlns="http://www.w3.org/2000/svg"
   xmlns:sodipodi="http://sodipodi.sourceforge.net/DTD/sodipodi-0.dtd"
   xmlns:inkscape="http://www.inkscape.org/namespaces/inkscape"
   width="2500"
   height="2500"
   viewBox="0 0 360.97011 361"
   preserveAspectRatio="xMinYMin meet"
   version="1.1"
   id="svg12"
   sodipodi:docname="html-5.svg"
   inkscape:version="0.92.4 (fd57863, 2020-04-02)">
  <metadata
     id="metadata18">
    <rdf:RDF>
      <cc:Work
         rdf:about="">
        <dc:format>image/svg+xml</dc:format>
        <dc:type
           rdf:resource="http://purl.org/dc/dcmitype/StillImage" />
        <dc:title></dc:title>
      </cc:Work>
    </rdf:RDF>
  </metadata>
  <defs
     id="defs16" />
  <sodipodi:namedview
     pagecolor="#ffffff"
     bordercolor="#666666"
     borderopacity="1"
     objecttolerance="10"
     gridtolerance="10"
     guidetolerance="10"
     inkscape:pageopacity="0"
     inkscape:pageshadow="2"
     inkscape:window-width="3373"
     inkscape:window-height="1385"
     id="namedview14"
     showgrid="false"
     inkscape:zoom="0.0944"
     inkscape:cx="-977.90678"
     inkscape:cy="1250"
     inkscape:window-x="67"
     inkscape:window-y="27"
     inkscape:window-maximized="1"
     inkscape:current-layer="svg12" />
  <path
     d="M 293.79653,86.491762 273.90005,309.38439 184.46391,334.17858 95.274324,309.41863 75.39839,86.491762 Z"
     id="path2"
     inkscape:connector-curvature="0"
     style="fill:#e44d26;stroke-width:0.856094" />
  <path
     d="m 184.59746,315.22638 72.26889,-20.03517 17.00202,-190.47235 h -89.27091 z"
     id="path4"
     inkscape:connector-curvature="0"
     style="fill:#f16529;stroke-width:0.856094" />
  <path
     d="m 145.91913,159.40186 h 38.67833 v -27.34107 h -68.55858 l 0.65406,7.33501 6.72034,75.34483 h 61.18418 v -27.34107 h -36.17939 z m 6.16217,69.00974 h -27.44638 l 3.83017,42.92969 56.00652,15.54666 0.12585,-0.0342 v -28.44629 l -0.11985,0.0317 -30.44956,-8.22192 z"
     id="path6"
     inkscape:connector-curvature="0"
     style="fill:#ebebeb;stroke-width:0.856094" />
  <path
     d="m 95.717781,25.909415 h 13.894409 v 13.727467 h 12.71042 V 25.909415 h 13.89526 v 41.570212 h -13.8944 V 53.559539 H 109.61304 V 67.479627 H 95.718637 V 25.909415 Z M 154.48863,39.695097 H 142.25847 V 25.909415 h 38.365 v 13.785682 h -12.23786 v 27.78453 H 154.4912 v -27.78453 h -8.6e-4 z m 32.22338,-13.785682 h 14.48768 l 8.91194,14.606676 8.90338,-14.606676 h 14.49367 v 41.570212 h -13.83791 v -20.60447 l -9.55914,14.780462 h -0.23971 l -9.56514,-14.780462 v 20.60447 h -13.59477 z m 53.71134,0 h 13.89868 v 27.829903 h 19.53949 V 67.479627 H 240.42249 V 25.909415 Z"
     id="path8"
     inkscape:connector-curvature="0"
     style="stroke-width:0.856094" />
  <path
     d="m 184.50329,214.74063 h 33.66761 l -3.1744,35.45942 -30.49407,8.23048 v 28.44458 l 56.05104,-15.53382 0.41093,-4.61949 6.42584,-71.98038 0.6669,-7.34186 h -63.55385 z m 0,-55.40554 v 0.0668 h 66.04166 l 0.5479,-6.14504 1.24647,-13.86102 0.6532,-7.33501 h -68.48923 v 27.27515 z"
     id="path10"
     inkscape:connector-curvature="0"
     style="fill:#ffffff;stroke-width:0.856094" />
</svg>
