<?xml version="1.0" encoding="UTF-8" standalone="no"?>
<svg
   xmlns:dc="http://purl.org/dc/elements/1.1/"
   xmlns:cc="http://creativecommons.org/ns#"
   xmlns:rdf="http://www.w3.org/1999/02/22-rdf-syntax-ns#"
   xmlns:svg="http://www.w3.org/2000/svg"
   xmlns="http://www.w3.org/2000/svg"
   xmlns:sodipodi="http://sodipodi.sourceforge.net/DTD/sodipodi-0.dtd"
   xmlns:inkscape="http://www.inkscape.org/namespaces/inkscape"
   width="2500"
   height="2500"
   viewBox="0 0 256 256"
   preserveAspectRatio="xMinYMin meet"
   version="1.1"
   id="svg6"
   sodipodi:docname="javascript.svg"
   inkscape:version="0.92.4 (fd57863, 2020-04-02)">
  <metadata
     id="metadata12">
    <rdf:RDF>
      <cc:Work
         rdf:about="">
        <dc:format>image/svg+xml</dc:format>
        <dc:type
           rdf:resource="http://purl.org/dc/dcmitype/StillImage" />
      </cc:Work>
    </rdf:RDF>
  </metadata>
  <defs
     id="defs10" />
  <sodipodi:namedview
     pagecolor="#ffffff"
     bordercolor="#666666"
     borderopacity="1"
     objecttolerance="10"
     gridtolerance="10"
     guidetolerance="10"
     inkscape:pageopacity="0"
     inkscape:pageshadow="2"
     inkscape:window-width="1853"
     inkscape:window-height="1025"
     id="namedview8"
     showgrid="false"
     inkscape:zoom="0.0944"
     inkscape:cx="15.889831"
     inkscape:cy="1250"
     inkscape:window-x="67"
     inkscape:window-y="27"
     inkscape:window-maximized="1"
     inkscape:current-layer="svg6" />
  <path
     d="M 24.949153,24.949153 H 231.05085 V 231.05085 H 24.949153 Z"
     id="path2"
     inkscape:connector-curvature="0"
     style="fill:#f7df1e;stroke-width:0.80508476" />
  <path
     d="m 79.141017,197.18254 15.77161,-9.54508 c 3.04322,5.39487 5.811103,9.9597 12.450633,9.9597 6.3642,0 10.37755,-2.48932 10.37755,-12.17288 v -65.85432 h 19.36792 v 66.12805 c 0,20.0603 -11.75907,29.19157 -28.91542,29.19157 -15.493861,0 -24.487463,-8.02428 -29.053098,-17.70865 m 68.488558,-2.0739 15.77,-9.13046 c 4.15182,6.77962 9.5475,11.75987 19.09259,11.75987 8.02589,0 13.143,-4.01254 13.143,-9.54669 0,-6.64034 -5.2572,-8.9928 -14.11152,-12.86526 l -4.84098,-2.07712 c -13.97385,-5.94716 -23.24279,-13.41834 -23.24279,-29.18995 0,-14.52695 11.0675,-25.59526 28.36152,-25.59526 12.31297,0 21.16729,4.28949 27.53068,15.49547 l -15.08085,9.68517 c -3.32097,-5.94877 -6.91648,-8.30043 -12.45063,-8.30043 -5.67263,0 -9.26975,3.59712 -9.26975,8.30043 0,5.81029 3.59712,8.16356 11.89754,11.76067 l 4.84178,2.07471 c 16.46399,7.05657 25.73293,14.25 25.73293,30.43542 0,17.43331 -13.6961,26.97839 -32.09632,26.97839 -17.98478,0 -29.60618,-8.57737 -35.278,-19.78415"
     id="path4"
     inkscape:connector-curvature="0"
     style="stroke-width:0.80508476" />
</svg>
