<?xml version="1.0" encoding="UTF-8" standalone="no"?>
<svg
   xmlns:dc="http://purl.org/dc/elements/1.1/"
   xmlns:cc="http://creativecommons.org/ns#"
   xmlns:rdf="http://www.w3.org/1999/02/22-rdf-syntax-ns#"
   xmlns:svg="http://www.w3.org/2000/svg"
   xmlns="http://www.w3.org/2000/svg"
   xmlns:sodipodi="http://sodipodi.sourceforge.net/DTD/sodipodi-0.dtd"
   xmlns:inkscape="http://www.inkscape.org/namespaces/inkscape"
   width="2500"
   height="2500"
   viewBox="0 0 192.756 192.756"
   version="1.1"
   id="svg20"
   sodipodi:docname="linux-tux-1.svg"
   inkscape:version="0.92.4 (fd57863, 2020-04-02)">
  <metadata
     id="metadata26">
    <rdf:RDF>
      <cc:Work
         rdf:about="">
        <dc:format>image/svg+xml</dc:format>
        <dc:type
           rdf:resource="http://purl.org/dc/dcmitype/StillImage" />
      </cc:Work>
    </rdf:RDF>
  </metadata>
  <defs
     id="defs24" />
  <sodipodi:namedview
     pagecolor="#ffffff"
     bordercolor="#666666"
     borderopacity="1"
     objecttolerance="10"
     gridtolerance="10"
     guidetolerance="10"
     inkscape:pageopacity="0"
     inkscape:pageshadow="2"
     inkscape:window-width="1853"
     inkscape:window-height="1025"
     id="namedview22"
     showgrid="false"
     inkscape:zoom="0.0944"
     inkscape:cx="-614.40678"
     inkscape:cy="1250"
     inkscape:window-x="67"
     inkscape:window-y="27"
     inkscape:window-maximized="1"
     inkscape:current-layer="svg20" />
  <g
     id="g18"
     transform="matrix(0.91299981,0,0,0.91299981,6.740374,6.4568136)"
     style="clip-rule:evenodd;fill-rule:evenodd">
    <path
       d="m 72.965,52.752 -0.289,-19.693 11.718,-6.863 17.399,-11.717 7.152,-0.291 7.442,7.999 4.009,26.578 -5.435,9.713 -22.569,-0.58 z"
       id="path4"
       inkscape:connector-curvature="0"
       style="fill:#ffffff" />
    <path
       d="m 49.818,109.05 5.993,-16.865 11.718,-13.991 5.993,-12.007 2.584,-3.989 42.841,-6.572 8.578,13.434 23.995,57.412 -8.29,10.269 -21.72,36.315 -5.123,1.135 -39.723,1.136 -27.714,-30.855 -4.568,-25.709 z"
       id="path6"
       inkscape:connector-curvature="0"
       style="fill:#ffffff" />
    <path
       d="m 104.668,65.34 c 0,0 -1.426,-0.29 2.562,-1.159 4.01,-0.846 4.031,-1.693 5.145,-2.852 1.137,-1.136 1.717,-3.721 1.717,-6.572 0,-2.851 1.426,-11.139 1.135,-13.411 -0.266,-2.295 -5.146,-10.85 -7.129,-12.008 -2.004,-1.136 -24.283,-3.142 -24.283,-3.142 l -6.862,5.437 -5.146,4.834 1.158,15.439 c 0,0 -1.448,4.856 -1.158,6.839 0.29,2.005 3.163,4.3 4.299,5.436 1.136,1.159 5.414,5.748 6.839,7.151 1.448,1.426 1.738,2.852 5.146,1.715 3.431,-1.136 5.436,-1.136 8.021,-3.141 2.562,-2.005 8.556,-4.566 8.556,-4.566 z"
       id="path8"
       inkscape:connector-curvature="0"
       style="fill:#f6d330" />
    <path
       d="m 91.523,41.057 c 0.869,-2.295 2.005,-6.572 3.988,-7.998 2.004,-1.426 6.305,-2.606 8.868,-2.295 2.584,0.29 7.418,2.852 8.576,4.856 1.137,2.005 1.137,10.003 1.137,10.003 l -0.58,6.572 -3.988,-0.289 -8.576,-3.432 h -1.426 c 0,0 -1.426,0.557 -5.726,-1.715 -4.278,-2.294 -3.142,-3.408 -2.273,-5.702 z m -9.134,6.282 c 0.134,-0.134 0.401,-0.312 0.758,-0.513 1.737,-0.958 5.524,-2.361 5.524,-2.361 0,0 3.698,-9.401 0.557,-13.122 -3.119,-3.72 -9.98,-3.141 -9.98,-3.141 0,0 -7.418,4.278 -7.151,5.993 0.29,1.716 0.579,7.708 0.869,8.555 0.268,0.869 1.426,10.003 1.426,10.003 l 2.562,-1.136 3.721,-2.852 c -10e-4,0 0.867,-0.557 1.714,-1.426 z"
       id="path10"
       inkscape:connector-curvature="0"
       style="fill:#ffffff" />
    <path
       d="m 136.949,133.622 4.143,0.312 c 0.602,0.045 1.203,0.066 1.805,0.089 3.074,0.111 5.771,0.579 8.645,0.936 1.895,0.224 5.035,1.427 5.258,3.81 0.312,3.521 -0.713,7.396 2.271,8.845 3.053,2.072 9.869,6.862 9.869,6.862 l 2.006,3.697 -5.992,5.437 -29.43,17.711 -13.412,-4.567 v -10.85 l 0.557,-14.569 -1.426,-13.145 2.273,-5.146 5.725,-1.716 z m -85.103,-6.416 c -0.29,-0.268 -5.503,1.271 -5.837,1.337 -2.428,0.356 -5.502,2.027 -5.502,4.679 0,1.359 -0.111,2.763 -0.735,3.988 -0.49,0.957 -1.604,2.405 -1.582,2.718 -0.379,1.047 -1.069,2.517 -2.027,3.141 -1.114,0.112 -6.06,0.558 -6.06,0.558 h -4.3 l -2.562,3.118 2.005,8.311 -0.58,6.55 -1.983,7.44 4.834,2.562 36.581,9.713 8.288,-2.562 4.277,-10.582 -0.869,-3.988 -3.987,-7.998 c 0,-0.001 -17.377,-25.242 -19.961,-28.985 z"
       id="path12"
       inkscape:connector-curvature="0"
       style="fill:#f6d330" />
    <path
       d="M 70.47,37.536 C 69.869,17.598 77.644,8.797 93.795,8.508 c 16.13,-0.312 26.244,8.198 28.316,19.36 2.049,11.139 0.869,25.82 4.99,33.44 4.1,7.641 6.729,13.5 13.791,22.3 7.039,8.8 11.428,17.756 13.479,28.627 2.07,10.85 3.23,15.974 -2.051,21.565 -5.279,5.569 -14.658,14.659 -21.699,4.389 -3.541,-5.146 -3.92,-11.54 2.051,-12.898 3.809,-0.892 6.549,-0.602 9.379,0.868 2.852,1.471 3.52,0.779 0.111,-1.76 -3.432,-2.54 -4.121,-0.201 -2.941,-4.3 1.182,-4.1 2.719,-11.474 -0.49,-19.583 -1.492,-3.742 -6.549,-13.99 -11.295,-16.508 -0.424,-0.245 -1.67,-0.757 -0.824,0.29 1.27,1.582 8.109,11.651 10.047,17.644 2.072,6.439 2.361,12.588 1.293,16.486 -1.068,3.921 -2.941,5.48 -5.191,5.48 -2.25,0 -4.299,1.069 -4.299,-4.099 0,-5.191 0.535,-13.011 -2.25,-19.628 -2.785,-6.594 -6.172,-11.139 -6.906,-13.924 -0.713,-2.785 -2.34,-10.27 -5.703,-14.525 -3.387,-4.255 -4.857,-7.04 -3.098,-11.896 1.76,-4.834 0.445,-6.149 -3.074,-7.174 -3.52,-1.024 -8.221,-2.495 -9.379,-4.856 -1.181,-2.339 -0.445,-7.04 2.184,-8.198 2.65,-1.181 7.039,0.423 7.195,3.81 0.156,3.364 -1.471,5.124 -1.023,5.859 0.445,0.735 2.783,1.916 3.965,0.602 1.158,-1.337 1.471,-5.437 0.289,-9.246 -1.182,-3.81 -1.76,-6.461 -6.016,-7.33 -4.254,-0.892 -6.17,-0.602 -8.22,2.049 -2.05,2.629 -2.94,6.884 -2.339,9.981 0.579,3.074 -0.602,1.314 -2.651,1.158 -2.05,-0.134 -1.47,-0.29 -3.52,-0.134 -2.05,0.134 -1.314,-1.181 -1.471,-3.386 -0.134,-2.206 -0.423,-6.75 -3.52,-8.51 -3.075,-1.76 -8.354,0.29 -8.221,7.642 0.156,7.33 2.651,10.849 4.122,8.198 1.47,-2.629 0.735,-1.314 -0.735,-2.495 -1.47,-1.158 -2.495,-6.015 -0.891,-7.463 1.626,-1.47 3.52,-1.47 4.567,-0.601 1.025,0.891 2.629,3.832 2.339,5.725 -0.29,1.916 -0.446,2.05 -2.339,3.386 -1.916,1.314 -2.651,2.495 -4.856,3.943 -2.206,1.47 -3.074,4.857 -1.314,5.726 1.76,0.891 1.916,0.735 3.364,2.941 1.47,2.206 3.965,3.23 10.136,2.206 6.149,-1.025 8.688,-2.495 13.345,-4.122 3.387,-1.159 2.205,-1.025 3.387,-2.339 1.158,-1.314 3.074,0.579 1.314,1.76 -1.76,1.181 -5.727,2.339 -8.666,3.364 -2.919,1.047 -6.305,3.966 -12.454,3.676 -6.171,-0.29 -1.916,-0.156 -3.832,-0.29 -1.894,-0.156 -2.785,0.134 -0.735,1.604 2.072,1.471 1.916,1.916 3.676,2.495 1.76,0.602 4.099,0.602 6.906,-0.423 2.785,-1.047 9.826,-4.122 12.031,-5.592 2.184,-1.47 3.943,0.446 1.76,1.916 -2.205,1.47 -2.807,1.025 -4.857,2.339 -2.049,1.337 -5.859,3.52 -8.354,5.881 -2.495,2.339 -3.074,2.495 -6.171,2.629 -3.074,0.156 -4.99,-3.074 -6.305,-4.544 -1.314,-1.471 -1.181,-2.339 -2.785,-4.1 -1.604,-1.76 -1.76,-1.337 -2.05,0.579 -0.29,1.916 -2.495,6.75 -4.411,9.981 -1.894,3.23 -2.05,7.196 -1.76,9.981 0.29,2.785 -0.445,3.074 -2.628,6.304 -2.206,3.23 -5.882,12.765 -6.461,15.84 -0.58,3.074 -1.314,9.401 -1.025,13.055 0.29,3.676 -0.735,4.411 -3.386,1.916 -2.629,-2.495 -3.521,-5.28 -3.364,-8.956 0.134,-3.141 0.557,-5.347 0.958,-6.505 0.401,-1.158 0.022,-1.96 -0.824,-0.534 -1.805,3.118 -1.894,8.51 -1.448,10.426 0.423,1.894 0.579,5.28 5.414,9.824 4.856,4.545 11.896,10.85 17.756,15.105 5.881,4.255 7.931,9.535 -0.735,13.345 5.436,7.352 8.376,11.161 6.015,15.995 4.856,-2.785 2.985,-9.356 0.646,-11.117 -2.362,-1.76 -0.936,-3.118 1.114,-1.781 2.05,1.314 2.785,3.943 10.872,3.809 8.064,-0.155 16.753,-0.957 21.611,-8.02 4.834,-7.04 5.77,-1.114 4.588,3.008 -1.158,4.099 -4.055,13.367 0.49,12.498 0.58,-5.437 1.916,-10.137 1.916,-15.996 0,-5.882 0.58,-8.711 0.135,-17.221 -0.447,-8.199 3.096,-8.756 6.75,-8.756 3.676,0 2.494,2.361 0.156,2.205 -2.361,-0.155 -4.836,0.736 -4.99,6.751 -0.156,6.015 0,5.436 1.023,10.85 1.025,5.436 1.182,7.04 0.291,13.055 -0.869,6.016 -1.605,9.245 2.361,12.922 3.943,3.676 9.957,2.629 13.055,0.289 3.074,-2.339 8.934,-7.774 14.213,-9.535 5.303,-1.76 10.873,-3.074 13.812,-6.015 2.92,-2.94 2.184,-4.99 -0.891,-6.595 -3.074,-1.626 -6.016,-0.891 -8.354,-3.52 -2.363,-2.651 -3.521,-8.511 -2.652,-11.607 0.891,-3.074 1.916,-1.76 1.916,0.446 0,2.205 0.135,4.255 2.34,7.039 2.205,2.785 4.254,4.122 7.775,6.305 3.52,2.206 5.725,5.726 1.314,8.822 -4.389,3.074 -6.885,4.835 -10.561,6.305 -3.654,1.471 -9.668,4.99 -13.346,8.645 -3.676,3.676 -5.725,6.906 -12.92,6.906 -7.174,0 -10.471,-1.738 -12.609,-6.016 -1.471,-2.94 -2.207,-2.494 -5.57,-2.65 -3.387,-0.134 -14.682,-0.29 -23.481,-0.134 -8.8,0.134 -11.74,1.604 -15.706,4.834 -3.943,3.23 -5.414,5.726 -12.899,3.23 -7.485,-2.496 -11.451,-5.28 -22.59,-7.485 -11.162,-2.205 -5.146,-1.181 -11.897,-2.651 -6.75,-1.448 -6.305,-4.679 -5.413,-7.329 0.869,-2.629 3.074,-6.751 1.158,-12.164 -1.894,-5.437 -1.158,-11.006 3.965,-11.006 5.146,0 9.981,1.025 12.03,-5.726 2.05,-6.75 2.651,-1.47 2.05,0.29 -0.579,1.76 -0.869,6.594 -5.414,7.33 -4.545,0.734 -5.569,-0.29 -8.377,-0.29 -2.784,0 -3.943,1.916 -2.495,5.146 1.47,3.229 3.096,6.594 2.807,9.379 -0.312,2.784 -0.602,3.81 -2.651,6.46 -2.05,2.629 -1.76,3.966 1.916,4.835 3.653,0.892 10.27,2.651 16.419,4.122 6.171,1.447 6.617,1.447 17.31,4.255 10.716,2.784 13.657,-2.206 14.526,-8.221 0.891,-6.016 -3.23,-11.741 -7.04,-17.467 -3.81,-5.726 -7.911,-12.317 -12.902,-18.333 -4.99,-6.015 -7.931,-6.461 -10.426,-5.146 -2.496,1.337 -2.941,1.047 -3.075,-2.339 -0.156,-3.364 -0.446,-5.569 2.339,-10.56 2.785,-4.99 5.28,-10.427 8.221,-18.781 2.94,-8.354 5.569,-9.98 10.56,-17.176 4.991,-7.173 2.785,-4.389 6.305,-9.223 3.52,-4.856 2.495,-3.966 2.206,-11.607 C 71.049,51.928 70.76,47.517 70.47,37.536 Z M 56.457,97.197 c 0.758,0.914 1.827,-1.247 2.941,-2.071 a 3.819,3.819 0 0 0 1.203,-3.498 c -0.111,-0.69 -1.226,-0.468 -1.448,-0.223 -0.69,0.69 -0.535,1.805 -1.025,2.763 -0.557,1.158 -2.428,2.094 -1.671,3.029 z m 63.07,-30.655 c 1.582,1.337 2.562,2.496 3.43,0.513 0.893,-1.983 0.893,-2.785 -1.246,-3.587 -2.117,-0.825 -3.074,-1.693 -4.033,-2.785 -0.957,-1.114 -1.291,0.78 -0.512,2.629 0.957,2.273 1.514,2.54 2.361,3.23 z M 86.466,48.341 c -1.092,-0.223 -2.406,-0.134 -3.142,0.735 -0.29,0.29 -0.156,1.114 0.356,1.337 0.668,0.29 1.114,-0.378 1.248,-0.891 0.067,-0.223 0.156,-0.512 0.379,-0.579 0.29,-0.156 0.713,-0.022 1.025,-0.156 0.357,-0.134 0.223,-0.446 0.134,-0.446 z m 5.191,0.201 c 0.446,0.668 1.248,0.668 1.916,0.958 0.356,0.156 1.092,0.379 1.314,-0.134 0.513,-1.626 -1.693,-1.114 -2.718,-1.114 -0.222,0 -0.735,-0.066 -0.512,0.29 z m 10.695,-7.107 c 1.002,0.044 2.361,1.827 2.494,3.899 0.021,0.312 0.869,0.289 1.047,-0.022 0.469,-0.824 0.135,-1.738 -0.088,-2.718 -0.18,-0.802 -1.137,-1.626 -1.939,-1.983 -0.535,-0.268 -1.092,-0.356 -1.805,-0.268 -0.178,0.09 -0.801,1.025 0.291,1.092 z M 80.496,40.923 c -0.914,0.066 -0.579,0.779 -0.535,1.358 1.27,0.713 1.381,2.317 1.648,3.587 0.022,0.49 0.757,0.268 0.824,0.112 0.557,-1.025 -0.134,-2.183 -0.378,-3.386 -0.223,-0.624 -0.646,-1.337 -1.226,-1.76 -0.088,-0.089 -0.245,0.089 -0.333,0.089 z m 28.025,-22.479 c -0.914,-0.735 -2.34,-1.025 -2.762,0.178 -0.445,1.025 -0.268,2.072 -0.514,3.186 0,0.356 -0.445,0.445 -0.689,0.779 -0.357,0.423 -0.268,0.958 -0.09,1.114 0.848,0.869 2.406,-0.847 3.543,-1.448 0.846,-0.535 2.07,0.156 3.008,-0.445 0.266,-0.178 0.355,-0.602 0.088,-0.936 -0.601,-1.047 -1.648,-1.648 -2.584,-2.428 z"
       id="path14"
       inkscape:connector-curvature="0" />
    <path
       d="m 134.943,135.093 c 0.135,-0.602 0.445,-1.782 1.025,-1.96 0.201,-0.067 0.379,0.022 0.445,0.223 0.133,0.378 -0.268,2.54 -0.111,3.03 0.178,0.512 0.779,0.445 1.203,0.312 1.002,-0.335 1.582,-1.515 1.537,-1.626 0,-0.045 -0.023,-0.045 -0.066,-0.045 -0.156,0.045 -0.291,0.602 -0.736,0.734 -0.289,0.09 -0.512,0.045 -0.602,-0.244 -0.088,-0.312 0.291,-2.54 0.111,-3.053 -0.154,-0.512 -0.668,-0.646 -1.158,-0.49 -1.092,0.357 -1.559,2.027 -1.848,3.008 h -0.023 l 0.156,-2.295 -1.359,0.446 -0.066,4.745 1.27,-0.424 c 0.023,-0.824 0.066,-1.76 0.222,-2.361 z m 5.883,0.512 c 1.09,-0.356 1.58,-1.648 1.535,-1.805 -0.021,-0.044 -0.043,-0.067 -0.088,-0.067 -0.09,0.045 -0.289,0.78 -0.914,0.98 -0.268,0.09 -0.512,0.022 -0.578,-0.155 -0.09,-0.268 -0.023,-0.735 -0.023,-1.137 l 0.045,-2.139 1.492,-0.49 -0.021,-0.513 -1.492,0.49 0.066,-2.027 -1.336,0.758 -0.068,4.522 c 0,0.49 -0.043,0.913 0.045,1.137 0.177,0.58 0.779,0.647 1.337,0.446 z"
       id="path16"
       inkscape:connector-curvature="0" />
  </g>
</svg>
