<?xml version="1.0" encoding="UTF-8" standalone="no"?>
<svg
   xmlns:dc="http://purl.org/dc/elements/1.1/"
   xmlns:cc="http://creativecommons.org/ns#"
   xmlns:rdf="http://www.w3.org/1999/02/22-rdf-syntax-ns#"
   xmlns:svg="http://www.w3.org/2000/svg"
   xmlns="http://www.w3.org/2000/svg"
   xmlns:xlink="http://www.w3.org/1999/xlink"
   xmlns:sodipodi="http://sodipodi.sourceforge.net/DTD/sodipodi-0.dtd"
   xmlns:inkscape="http://www.inkscape.org/namespaces/inkscape"
   width="2700"
   height="2700"
   viewBox="0 0 208.17648 208.17648"
   version="1.1"
   id="svg40"
   sodipodi:docname="php.svg"
   inkscape:version="0.92.4 (fd57863, 2020-04-02)">
  <metadata
     id="metadata44">
    <rdf:RDF>
      <cc:Work
         rdf:about="">
        <dc:format>image/svg+xml</dc:format>
        <dc:type
           rdf:resource="http://purl.org/dc/dcmitype/StillImage" />
        <dc:title></dc:title>
      </cc:Work>
    </rdf:RDF>
  </metadata>
  <sodipodi:namedview
     pagecolor="#ffffff"
     bordercolor="#666666"
     borderopacity="1"
     objecttolerance="10"
     gridtolerance="10"
     guidetolerance="10"
     inkscape:pageopacity="0"
     inkscape:pageshadow="2"
     inkscape:window-width="3373"
     inkscape:window-height="1385"
     id="namedview42"
     showgrid="false"
     inkscape:zoom="0.3776"
     inkscape:cx="1211.1312"
     inkscape:cy="1341.3754"
     inkscape:window-x="67"
     inkscape:window-y="27"
     inkscape:window-maximized="1"
     inkscape:current-layer="svg40" />
  <clipPath
     id="b">
    <use
       xlink:href="#a"
       overflow="visible"
       id="use7"
       style="overflow:visible"
       x="0"
       y="0"
       width="100%"
       height="100%" />
  </clipPath>
  <path
     d="m 104.08824,147.76914 c 47.60404,0 86.19445,-19.55733 86.19445,-43.6809 0,-24.123564 -38.59041,-43.6809 -86.19445,-43.6809 -47.603001,0 -86.194448,19.557336 -86.194448,43.6809 0,24.12357 38.591447,43.6809 86.194448,43.6809 z"
     id="path34"
     inkscape:connector-curvature="0"
     style="clip-rule:evenodd;fill:#6e81b6;fill-rule:evenodd;stroke-width:1.0422796" />
  <path
     d="m 120.84124,117.63424 4.102,-21.112001 c 0.926,-4.765 0.156,-8.319 -2.287,-10.565 -2.367,-2.173 -6.385,-3.23 -12.283,-3.23 h -7.104 l 2.032,-10.459999 a 1.344,1.344 0 0 0 -1.319,-1.602001 h -9.805003 c -0.644,0 -1.197,0.457 -1.32,1.089 l -4.357,22.413 c -0.396,-2.522 -1.372,-4.69 -2.934,-6.479 -2.876,-3.292 -7.425,-4.961 -13.522,-4.961 h -19.004 c -0.644,0 -1.197,0.457 -1.32,1.088 l -8.817,45.368001 c -0.077,0.395 0.026,0.801 0.282,1.111 0.255,0.311 0.635,0.49 1.038,0.49 h 9.882 c 0.644,0 1.197,-0.457 1.32,-1.09 l 2.133,-10.973 h 7.356 c 3.86,0 7.104,-0.418 9.636,-1.242 2.589,-0.842 4.972,-2.27 7.072,-4.236 1.697,-1.559 3.099,-3.305 4.178,-5.188 l -1.761,9.064 c -0.077,0.395 0.026,0.803 0.282,1.111 0.255,0.311 0.636,0.49 1.038,0.49 h 9.805 c 0.644,0 1.197,-0.457 1.32,-1.088 l 4.839003,-24.903001 h 6.728 c 2.867,0 3.707,0.571 3.936,0.816 0.207,0.224 0.637,1.013 0.154,3.5 l -3.9,20.073001 a 1.347,1.347 0 0 0 1.32,1.601 h 9.961 a 1.341,1.341 0 0 0 1.319,-1.085 z m -45.458003,-17.444 c -0.616,3.165 -1.776,5.422 -3.45,6.709 -1.7,1.311 -4.419,1.975 -8.082,1.975 h -4.38 l 3.167,-16.298001 h 5.663 c 4.16,0 5.836,0.889 6.509,1.634 0.933,1.034 1.131,3.103 0.573,5.980001 z M 162.14224,87.688239 c -2.875,-3.292 -7.424,-4.961 -13.521,-4.961 h -19.004 c -0.645,0 -1.197,0.457 -1.32,1.088 l -8.816,45.368001 c -0.078,0.395 0.025,0.801 0.281,1.111 0.256,0.31 0.637,0.49 1.037,0.49 h 9.883 c 0.645,0 1.197,-0.457 1.32,-1.09 l 2.133,-10.973 h 7.357 c 3.861,0 7.102,-0.418 9.635,-1.242 2.59,-0.842 4.973,-2.27 7.072,-4.236 1.752,-1.609 3.193,-3.418 4.285,-5.371 1.092,-1.953 1.875,-4.131 2.332,-6.475 1.123,-5.781001 0.224,-10.393001 -2.674,-13.709001 z m -9.621,12.502001 c -0.617,3.165 -1.777,5.422 -3.449,6.709 -1.701,1.311 -4.42,1.975 -8.082,1.975 h -4.381 l 3.166,-16.298001 h 5.664 c 4.16,0 5.836,0.889 6.51,1.634 0.931,1.034 1.13,3.103 0.572,5.980001 z"
     id="path36"
     inkscape:connector-curvature="0"
     style="clip-rule:evenodd;fill:#ffffff;fill-rule:evenodd" />
  <path
     d="m 68.301237,91.231239 c 3.754,0 6.257,0.693 7.508,2.079 1.25,1.386 1.548,3.766 0.894,7.137001 -0.683999,3.511 -2,6.017 -3.95,7.519 -1.95,1.502 -4.917999,2.252 -8.902,2.252 h -6.012 l 3.69,-18.987001 z m -24.079,38.208001 h 9.882 l 2.345,-12.061 h 8.465 c 3.735,0 6.808,-0.393 9.22,-1.178 2.412,-0.785 4.605,-2.1 6.578,-3.947 1.656,-1.521 2.996,-3.201 4.022,-5.037 1.025,-1.836 1.753,-3.861 2.184,-6.076 1.046,-5.378001 0.257,-9.567001 -2.365,-12.567001 -2.621,-3.001 -6.792,-4.501 -12.509,-4.501 h -19.004 z m 49.954,-57.429001 h 9.805003 l -2.344,12.062 h 8.736 c 5.494,0 9.287,0.958 11.373,2.875 2.086,1.917 2.711,5.024 1.877,9.319 l -4.102,21.112001 h -9.961 l 3.9,-20.074001 c 0.443,-2.284 0.281,-3.841 -0.49,-4.672 -0.771,-0.83 -2.412,-1.246 -4.92,-1.246 h -7.836 l -5.051002,25.992001 h -9.805 z m 51.263003,19.221 c 3.754,0 6.256,0.693 7.508,2.079 1.25,1.386 1.547,3.766 0.893,7.137001 -0.682,3.511 -1.998,6.017 -3.949,7.519 -1.949,1.502 -4.918,2.252 -8.9,2.252 h -6.012 l 3.689,-18.987001 z m -24.081,38.208001 h 9.883 l 2.344,-12.061 h 8.465 c 3.736,0 6.809,-0.393 9.221,-1.178 2.412,-0.785 4.605,-2.1 6.578,-3.947 1.656,-1.521 2.996,-3.201 4.021,-5.037 1.025,-1.836 1.754,-3.861 2.186,-6.076 1.045,-5.378001 0.256,-9.567001 -2.365,-12.567001 -2.623,-3.001 -6.793,-4.501 -12.51,-4.501 h -19.004 z"
     id="path38"
     inkscape:connector-curvature="0"
     style="clip-rule:evenodd;fill-rule:evenodd" />
</svg>
