<?xml version="1.0" encoding="UTF-8" standalone="no"?>
<svg
   xmlns:dc="http://purl.org/dc/elements/1.1/"
   xmlns:cc="http://creativecommons.org/ns#"
   xmlns:rdf="http://www.w3.org/1999/02/22-rdf-syntax-ns#"
   xmlns:svg="http://www.w3.org/2000/svg"
   xmlns="http://www.w3.org/2000/svg"
   xmlns:sodipodi="http://sodipodi.sourceforge.net/DTD/sodipodi-0.dtd"
   xmlns:inkscape="http://www.inkscape.org/namespaces/inkscape"
   viewBox="0 0 84.980766 85.04"
   width="340.50601"
   height="340.50601"
   version="1.1"
   id="svg16"
   sodipodi:docname="phpstorm.svg"
   inkscape:version="0.92.4 (f8dce91, 2019-08-02)">
  <metadata
     id="metadata22">
    <rdf:RDF>
      <cc:Work
         rdf:about="">
        <dc:format>image/svg+xml</dc:format>
        <dc:type
           rdf:resource="http://purl.org/dc/dcmitype/StillImage" />
        <dc:title>logo_PhpStorm</dc:title>
      </cc:Work>
    </rdf:RDF>
  </metadata>
  <defs
     id="defs20" />
  <sodipodi:namedview
     pagecolor="#ffffff"
     bordercolor="#666666"
     borderopacity="1"
     objecttolerance="10"
     gridtolerance="10"
     guidetolerance="10"
     inkscape:pageopacity="0"
     inkscape:pageshadow="2"
     inkscape:window-width="1853"
     inkscape:window-height="1025"
     id="namedview18"
     showgrid="false"
     fit-margin-top="0"
     fit-margin-left="0"
     fit-margin-right="0"
     fit-margin-bottom="0"
     inkscape:zoom="0.14"
     inkscape:cx="416.98647"
     inkscape:cy="138.6609"
     inkscape:window-x="67"
     inkscape:window-y="27"
     inkscape:window-maximized="1"
     inkscape:current-layer="svg16" />
  <title
     id="title2">logo_PhpStorm</title>
  <path
     d="M -0.21744804,0 H 84.822552 V 85.04 H -0.21744804 Z"
     id="path4"
     inkscape:connector-curvature="0" />
  <path
     d="m 7.692552,10.6 h 8.71 c 5.08,0 8.16,3 8.16,7.37 v 0.06 c 0,4.93 -3.84,7.49 -8.62,7.49 h -3.56 v 6.39 h -4.69 z m 8.4,10.75 c 2.35,0 3.71,-1.4 3.71,-3.23 v -0.06 c 0,-2.1 -1.46,-3.23 -3.8,-3.23 h -3.62 v 6.52 z m 9.65,7.54 2.78,-3.33 a 9.81,9.81 0 0 0 6.38,2.59 c 1.93,0 3.09,-0.76 3.09,-2 v -0.06 c 0,-1.19 -0.73,-1.8 -4.31,-2.72 -4.31,-1.1 -7.09,-2.29 -7.09,-6.53 v -0.07 c 0,-3.87 3.12,-6.44 7.48,-6.44 a 12.37,12.37 0 0 1 7.94,2.72 l -2.44,3.54 a 10,10 0 0 0 -5.56,-2.11 c -1.8,0 -2.75,0.82 -2.75,1.86 v 0.07 c 0,1.41 0.92,1.87 4.61,2.81 4.34,1.13 6.78,2.69 6.78,6.41 v 0.06 c 0,4.25 -3.24,6.62 -7.85,6.62 a 13.61,13.61 0 0 1 -9.07,-3.42 m -18.07,40.21 h 31.89 v 5.31 h -31.89 z"
     id="path6"
     inkscape:connector-curvature="0"
     style="fill:#ffffff" />
</svg>
