<?xml version="1.0" encoding="UTF-8" standalone="no"?>
<svg
   xmlns:dc="http://purl.org/dc/elements/1.1/"
   xmlns:cc="http://creativecommons.org/ns#"
   xmlns:rdf="http://www.w3.org/1999/02/22-rdf-syntax-ns#"
   xmlns:svg="http://www.w3.org/2000/svg"
   xmlns="http://www.w3.org/2000/svg"
   xmlns:sodipodi="http://sodipodi.sourceforge.net/DTD/sodipodi-0.dtd"
   xmlns:inkscape="http://www.inkscape.org/namespaces/inkscape"
   viewBox="0 0 415.9429 416.23283"
   width="1666.6249"
   height="1666.6249"
   version="1.1"
   id="svg16"
   sodipodi:docname="phpstorm.svg"
   inkscape:version="0.92.4 (fd57863, 2020-04-02)">
  <metadata
     id="metadata22">
    <rdf:RDF>
      <cc:Work
         rdf:about="">
        <dc:format>image/svg+xml</dc:format>
        <dc:type
           rdf:resource="http://purl.org/dc/dcmitype/StillImage" />
        <dc:title>logo_PhpStorm</dc:title>
      </cc:Work>
    </rdf:RDF>
  </metadata>
  <defs
     id="defs20" />
  <sodipodi:namedview
     pagecolor="#ffffff"
     bordercolor="#666666"
     borderopacity="1"
     objecttolerance="10"
     gridtolerance="10"
     guidetolerance="10"
     inkscape:pageopacity="0"
     inkscape:pageshadow="2"
     inkscape:window-width="1853"
     inkscape:window-height="1025"
     id="namedview18"
     showgrid="false"
     fit-margin-top="150"
     fit-margin-left="150"
     fit-margin-right="150"
     fit-margin-bottom="150"
     inkscape:zoom="0.098994949"
     inkscape:cx="391.745"
     inkscape:cy="644.94033"
     inkscape:window-x="67"
     inkscape:window-y="27"
     inkscape:window-maximized="1"
     inkscape:current-layer="svg16" />
  <title
     id="title2">logo_PhpStorm</title>
  <path
     d="M 37.270364,37.461894 H 378.5794 V 378.77093 H 37.270364 Z"
     id="path4"
     inkscape:connector-curvature="0"
     style="stroke-width:4.01351213" />
  <path
     d="m 69.01724,80.005119 h 34.95769 c 20.38864,0 32.75026,12.040532 32.75026,29.579581 v 0.24079 c 0,19.78661 -15.41189,30.06121 -34.59647,30.06121 H 87.84061 v 25.64633 H 69.01724 Z m 33.7135,43.145241 c 9.43175,0 14.89013,-5.61891 14.89013,-12.96363 v -0.2408 c 0,-8.42837 -5.85973,-12.963645 -15.25134,-12.963645 H 87.84061 v 26.168105 z m 38.73039,30.26188 11.15756,-13.36498 a 39.372549,39.372549 0 0 0 25.60621,10.39499 c 7.74608,0 12.40176,-3.05027 12.40176,-8.02702 v -0.2408 c 0,-4.77608 -2.92989,-7.22432 -17.29825,-10.91675 -17.29824,-4.41487 -28.45579,-9.19093 -28.45579,-26.20824 v -0.28097 c 0,-15.532288 12.52215,-25.847016 30.02105,-25.847016 a 49.647143,49.647143 0 0 1 31.86729,10.916745 l -9.79297,14.207841 a 40.135116,40.135116 0 0 0 -22.31512,-8.468508 c -7.22432,0 -11.03716,3.291085 -11.03716,7.465138 v 0.28098 c 0,5.65905 3.69244,7.50526 18.50229,11.27798 17.41865,4.53526 27.21162,10.79634 27.21162,25.7266 v 0.24079 c 0,17.05743 -13.00378,26.56945 -31.50606,26.56945 A 54.623898,54.623898 0 0 1 141.421,153.41224 M 68.896837,314.79555 H 196.88774 v 21.31174 H 68.896837 Z"
     id="path6"
     inkscape:connector-curvature="0"
     style="fill:#ffffff;stroke-width:4.01351213" />
</svg>
