<?xml version="1.0" encoding="UTF-8" standalone="no"?>
<svg
   xmlns:dc="http://purl.org/dc/elements/1.1/"
   xmlns:cc="http://creativecommons.org/ns#"
   xmlns:rdf="http://www.w3.org/1999/02/22-rdf-syntax-ns#"
   xmlns:svg="http://www.w3.org/2000/svg"
   xmlns="http://www.w3.org/2000/svg"
   xmlns:sodipodi="http://sodipodi.sourceforge.net/DTD/sodipodi-0.dtd"
   xmlns:inkscape="http://www.inkscape.org/namespaces/inkscape"
   width="2424"
   height="2500"
   viewBox="0 0 256 264"
   preserveAspectRatio="xMinYMin meet"
   version="1.1"
   id="svg10"
   sodipodi:docname="postgresql.svg"
   inkscape:version="0.92.4 (fd57863, 2020-04-02)">
  <metadata
     id="metadata16">
    <rdf:RDF>
      <cc:Work
         rdf:about="">
        <dc:format>image/svg+xml</dc:format>
        <dc:type
           rdf:resource="http://purl.org/dc/dcmitype/StillImage" />
      </cc:Work>
    </rdf:RDF>
  </metadata>
  <defs
     id="defs14" />
  <sodipodi:namedview
     pagecolor="#ffffff"
     bordercolor="#666666"
     borderopacity="1"
     objecttolerance="10"
     gridtolerance="10"
     guidetolerance="10"
     inkscape:pageopacity="0"
     inkscape:pageshadow="2"
     inkscape:window-width="1853"
     inkscape:window-height="1025"
     id="namedview12"
     showgrid="false"
     inkscape:zoom="0.0944"
     inkscape:cx="-22.110169"
     inkscape:cy="1250"
     inkscape:window-x="67"
     inkscape:window-y="27"
     inkscape:window-maximized="1"
     inkscape:current-layer="svg10" />
  <path
     d="m 237.73768,154.541 c -1.32628,-4.01688 -4.80056,-6.81462 -9.29352,-7.48597 -2.11861,-0.31623 -4.54481,-0.18144 -7.41599,0.41042 -5.00447,1.03252 -8.71722,1.42565 -11.42682,1.50168 10.22754,-17.26767 18.54385,-36.95896 23.33145,-55.495039 7.74173,-29.972404 3.60474,-43.626701 -1.22951,-49.802801 -12.79373,-16.347484 -31.45941,-25.129505 -53.97781,-25.398219 -12.01263,-0.146885 -22.55814,2.224883 -28.05944,3.930482 -5.12198,-0.903778 -10.62932,-1.408372 -16.40796,-1.501688 -10.83237,-0.172806 -20.40325,2.188593 -28.58131,7.04186 -4.52753,-1.531064 -11.79404,-3.689416 -20.185518,-5.066683 -19.736218,-3.24012 -35.643046,-0.715418 -47.2781,7.504117 -14.088905,9.95192 -20.620122,27.242928 -19.412206,51.39262 0.38363,7.66742 4.672685,30.996281 11.425959,53.120681 3.881231,12.71683 8.019944,23.27702 12.301222,31.39028 6.071553,11.50459 12.568209,18.27946 19.861503,20.71258 4.087735,1.36171 11.514953,2.3156 19.326666,-4.19056 0.990181,1.19928 2.311286,2.39078 4.064406,3.4976 2.226611,1.40406 4.949175,2.55149 7.668284,3.23148 9.798984,2.44953 18.977594,1.83693 26.808314,-1.59673 0.0484,1.39282 0.0855,2.72343 0.11665,3.87259 0.0518,1.86372 0.10368,3.69115 0.17194,5.4002 0.46399,11.55557 1.25026,20.54063 3.57969,26.82733 0.12787,0.34561 0.29981,0.87267 0.48126,1.4317 1.16212,3.55808 3.10533,9.51472 8.04932,14.17963 5.11939,4.83253 11.31191,6.31434 16.98341,6.31434 2.8444,0 5.55832,-0.37326 7.93873,-0.88304 8.48479,-1.81878 18.12134,-4.58887 25.09235,-14.51487 6.59084,-9.38339 9.79467,-23.51636 10.37443,-45.78505 0.0752,-0.62988 0.1443,-1.23125 0.21083,-1.8041 l 0.13824,-1.17681 1.55267,0.13652 0.40004,0.0268 c 8.64205,0.394 19.20916,-1.43861 25.69891,-4.45322 5.12803,-2.37954 21.56105,-11.05529 17.69191,-22.76811"
     id="path2"
     inkscape:connector-curvature="0"
     style="stroke-width:0.86403191" />
  <path
     d="m 222.96101,156.81859 c -25.69631,5.30084 -27.46325,-3.3991 -27.46325,-3.3991 27.1306,-40.25784 38.47275,-91.35928 28.68586,-103.866142 C 197.48157,15.437047 151.26018,31.571979 150.4886,31.99017 l -0.24797,0.04493 c -5.07706,-1.054119 -10.75807,-1.681406 -17.14413,-1.785954 -11.62641,-0.190087 -20.44645,3.048305 -27.13924,8.123628 0,0 -82.454567,-33.9685513 -78.619129,42.721196 0.815646,16.314651 23.38416,123.44684 50.302211,91.08797 9.838732,-11.83291 19.345676,-21.83754 19.345676,-21.83754 4.721072,3.13644 10.373562,4.73662 16.299102,4.16204 l 0.46053,-0.39054 c -0.14343,1.46886 -0.0778,2.90574 0.18403,4.60702 -6.93472,7.74777 -4.89647,9.10776 -18.758994,11.96166 -14.027558,2.89105 -5.787286,8.03722 -0.406959,9.38338 6.522573,1.63043 21.612033,3.94085 31.807613,-10.33209 l -0.4061,1.6287 c 2.71652,2.1765 4.6243,14.15544 4.30461,25.01545 -0.31969,10.85916 -0.53311,18.31489 1.6071,24.13846 2.14193,5.82358 4.27523,18.92662 22.49939,15.02206 15.22683,-3.26345 23.11804,-11.71973 24.21622,-25.82591 0.77849,-10.02796 2.54198,-8.54528 2.65258,-17.51134 l 1.41442,-4.24412 c 1.63043,-13.59382 0.25921,-17.97964 9.64,-15.93966 l 2.28105,0.20045 c 6.90361,0.31365 15.94139,-1.11114 21.24568,-3.57623 11.42077,-5.29997 18.19478,-14.15025 6.93299,-11.82514 h 0.002"
     id="path4"
     inkscape:connector-curvature="0"
     style="fill:#336791;stroke-width:0.86403191" />
  <path
     d="m 110.78374,88.389855 c -2.3156,-0.322284 -4.41261,-0.02419 -5.47364,0.779357 -0.59618,0.451889 -0.78108,0.975492 -0.8312,1.335794 -0.13306,0.954755 0.5357,2.010602 0.94698,2.554942 1.16299,1.541433 2.86168,2.600736 4.54308,2.834025 0.24366,0.03456 0.48645,0.05011 0.72752,0.05011 2.80378,0 5.35354,-2.183409 5.57819,-3.794829 0.28081,-2.018378 -2.64913,-3.363676 -5.49093,-3.758539 m 76.71222,0.06307 c -0.2212,-1.582043 -3.03621,-2.033067 -5.7078,-1.661534 -2.66813,0.371534 -5.25504,1.575995 -5.03903,3.161493 0.1728,1.232974 2.39941,3.337756 5.03471,3.337756 0.22292,0 0.44757,-0.01469 0.67395,-0.04666 1.75916,-0.243657 3.05003,-1.36085 3.66349,-2.004554 0.93316,-0.981541 1.47404,-2.075405 1.37468,-2.786503"
     id="path6"
     inkscape:connector-curvature="0"
     style="fill:#ffffff;stroke-width:0.86403191" />
  <path
     d="m 231.51147,156.21636 c -0.97981,-2.96276 -4.13353,-3.91579 -9.37302,-2.83402 -15.55689,3.21074 -21.12817,0.98672 -22.95733,-0.3603 12.09213,-18.42116 22.03973,-40.689 27.40623,-61.464644 2.54198,-9.841323 3.94604,-18.981053 4.06095,-26.430737 0.12702,-8.176334 -1.2658,-14.184812 -4.13785,-17.85522 -11.57975,-14.796547 -28.57526,-22.733544 -49.14786,-22.95128 -14.14334,-0.158982 -26.0929,3.460448 -28.40937,4.478277 -4.87833,-1.2131 -10.19644,-1.957896 -15.98632,-2.052939 -10.61722,-0.171943 -19.79497,2.370039 -27.39327,7.551639 -3.3006,-1.228654 -11.830324,-4.156858 -22.261782,-5.8374 C 65.277773,25.556589 50.94694,27.756414 40.720258,35.001322 28.517534,43.646825 22.884046,59.100901 23.975319,80.93326 c 0.367213,7.345135 4.552584,29.9413 11.157244,51.58098 8.693889,28.48195 18.144671,44.60565 28.08795,47.92267 1.163851,0.38795 2.505693,0.65925 3.98578,0.65925 3.627206,0 8.074378,-1.63475 12.701269,-7.19738 a 457.79177,457.79177 0 0 1 17.506151,-19.8088 c 3.908877,2.09787 8.203117,3.2695 12.594997,3.38701 0.009,0.11491 0.0199,0.22983 0.0302,0.34388 a 101.662,101.662 0 0 0 -2.22056,2.7433 c -3.04312,3.86309 -3.67646,4.6675 -13.47199,6.68415 -2.786503,0.57545 -10.186937,2.10046 -10.295805,7.28811 -0.117508,5.66805 8.748324,8.04846 9.758377,8.30076 3.520066,0.88131 6.911388,1.31592 10.145468,1.31592 7.86528,0 14.78704,-2.58519 20.31857,-7.58707 -0.17021,20.20625 0.67222,40.11701 3.09842,46.18337 1.98727,4.96646 6.8414,17.10352 22.17451,17.10265 2.24994,0 4.72626,-0.2618 7.45055,-0.84588 16.00274,-3.43021 22.95215,-10.50318 25.64015,-26.09636 1.43861,-8.33359 3.90715,-28.23311 5.06841,-38.90736 2.4504,0.76467 5.60498,1.1146 9.01531,1.11374 7.11271,0 15.32015,-1.51119 20.46719,-3.90024 5.7821,-2.68541 16.21615,-9.27452 14.32392,-14.9996 z M 193.40248,84.086976 c -0.0527,3.151125 -0.48645,6.011935 -0.94612,8.998029 -0.49509,3.211607 -1.00659,6.532081 -1.13534,10.562795 -0.12701,3.9227 0.3629,8.00093 0.83639,11.94524 0.95735,7.96637 1.93975,16.16776 -1.86286,24.26029 a 31.544078,31.544078 0 0 1 -1.68486,-3.46391 c -0.47262,-1.1457 -1.49909,-2.98609 -2.92043,-5.53326 -5.52894,-9.91563 -18.47645,-33.135624 -11.84847,-42.610598 1.97432,-2.8202 6.98484,-5.719891 19.56169,-4.158586 z M 178.1575,30.701035 c 18.43326,0.406959 33.01466,7.302798 43.33811,20.494837 7.91799,10.118678 -0.80096,56.160348 -26.04192,95.880758 a 148.03459,148.03459 0 0 0 -0.76553,-0.96512 l -0.31969,-0.39918 c 6.52257,-10.77189 5.24726,-21.42972 4.11192,-30.87878 -0.46657,-3.87777 -0.90723,-7.5404 -0.79491,-10.98098 0.11578,-3.64621 0.59791,-6.774009 1.06449,-9.798121 0.57285,-3.72657 1.15608,-7.582745 0.99537,-12.128417 0.1201,-0.476945 0.16848,-1.040294 0.10541,-1.709055 -0.41042,-4.359041 -5.38724,-17.405059 -15.53098,-29.21292 -5.54881,-6.458638 -13.64047,-13.686266 -24.68884,-18.561134 4.75217,-0.984996 11.25056,-1.903462 18.52657,-1.741888 z M 75.011093,169.82746 c -5.097788,6.12944 -8.617854,4.95436 -9.775657,4.569 C 57.692437,171.8804 48.939793,155.93728 41.223124,130.65571 34.545885,108.78015 30.643917,86.782756 30.334594,80.614432 29.359966,61.106319 34.088812,47.510776 44.390665,40.204522 61.156341,28.315443 88.720688,35.43161 99.796713,39.040671 99.637732,39.197925 99.471837,39.34481 99.314584,39.504656 81.138808,57.860151 81.56996,89.221054 81.614889,91.138341 c -0.0017,0.739611 0.06048,1.786818 0.145158,3.227159 0.312779,5.274915 0.895137,15.09205 -0.660121,26.20955 -1.444661,10.33123 1.740161,20.44299 8.736227,27.7432 a 31.342759,31.342759 0 0 0 2.261172,2.13243 c -3.113971,3.33516 -9.881934,10.71054 -17.086232,19.37678 z m 19.422574,-25.91491 c -5.638672,-5.88406 -8.199663,-14.06817 -7.027172,-22.45619 1.641661,-11.74392 1.035975,-21.972335 0.710235,-27.467578 -0.04579,-0.768988 -0.0864,-1.442933 -0.109732,-1.974313 2.65517,-2.354487 14.959852,-8.94705 23.734952,-6.936448 4.00393,0.916738 6.44396,3.643623 7.45833,8.333588 5.24986,24.281891 0.69468,34.402291 -2.96536,42.535431 -0.7543,1.67536 -1.46713,3.25913 -2.0754,4.89733 l -0.47177,1.26667 c -1.19409,3.2021 -2.30523,6.17956 -2.99387,9.00667 -5.99465,-0.0173 -11.826001,-2.57827 -16.260213,-7.20603 z m 0.920194,32.74681 c -1.750529,-0.4372 -3.324795,-1.19669 -4.248445,-1.82657 0.771581,-0.36289 2.144527,-0.85711 4.525799,-1.34788 11.523595,-2.37177 13.303505,-4.04627 17.189915,-8.98075 0.89082,-1.13188 1.90087,-2.41411 3.29974,-3.97628 l 0.002,-0.002 c 2.08318,-2.33288 3.03621,-1.93716 4.76427,-1.22001 1.40059,0.5789 2.7649,2.33462 3.31788,4.26659 0.2618,0.91242 0.55557,2.64394 -0.40609,3.99183 -8.11845,11.3672 -19.94877,11.22118 -28.444799,9.0948 z m 60.308569,56.1206 c -14.09755,3.02066 -19.08906,-4.17241 -22.37843,-12.3954 -2.12293,-5.30861 -3.16668,-29.24748 -2.4262,-55.68427 0.01,-0.35166 -0.0406,-0.69122 -0.13738,-1.01092 a 13.344109,13.344109 0 0 0 -0.394,-1.86803 c -1.10078,-3.84667 -3.7836,-7.06433 -7.00212,-8.39839 -1.27876,-0.52965 -3.62547,-1.50169 -6.44568,-0.78022 0.60137,-2.47805 1.64426,-5.27665 2.77528,-8.30681 l 0.47435,-1.27444 c 0.53397,-1.43689 1.20446,-2.92562 1.91297,-4.50161 3.83025,-8.50899 9.07579,-20.16391 3.38268,-46.493559 -2.13243,-9.86206 -9.25378,-14.678174 -20.049,-13.559253 -6.471596,0.669625 -12.392807,3.280729 -15.346068,4.778097 -0.635063,0.32142 -1.215693,0.632471 -1.758305,0.934882 0.824287,-9.936367 3.938258,-28.506142 15.587133,-40.255248 7.33477,-7.396113 17.10265,-11.04924 29.00383,-10.852241 23.44982,0.38363 38.48744,12.417867 46.97396,22.446686 7.31316,8.641183 11.27302,17.346305 12.85334,22.041455 -11.88476,-1.208781 -19.96778,1.137066 -24.06502,6.995202 -8.91422,12.742743 4.8766,37.474789 11.50458,49.361279 1.2157,2.17823 2.26463,4.06095 2.59469,4.86105 2.15835,5.23084 4.95263,8.72326 6.99261,11.27216 0.62556,0.78108 1.23211,1.53884 1.69351,2.20069 -3.59956,1.0377 -10.06511,3.43539 -9.47584,15.42037 -0.47522,6.01367 -3.85445,34.16901 -5.57128,44.11661 -2.26636,13.14193 -7.10234,18.03667 -20.69961,20.95278 z m 58.84403,-67.33919 c -3.68078,1.70819 -9.84046,2.98955 -15.69169,3.26517 -6.46296,0.30242 -9.75319,-0.72405 -10.52736,-1.35566 -0.36289,-7.46869 2.4167,-8.24891 5.35872,-9.07493 0.46226,-0.1296 0.91329,-0.25662 1.34876,-0.40869 0.27044,0.22033 0.5668,0.43893 0.89168,0.65321 5.19456,3.42848 14.45957,3.79829 27.54015,1.09819 l 0.14343,-0.0285 c -1.76435,1.64944 -4.78328,3.86309 -9.06369,5.85123 z"
     id="path8"
     inkscape:connector-curvature="0"
     style="fill:#ffffff;stroke-width:0.86403191" />
</svg>
