<?xml version="1.0" encoding="UTF-8" standalone="no"?>
<svg
   xmlns:dc="http://purl.org/dc/elements/1.1/"
   xmlns:cc="http://creativecommons.org/ns#"
   xmlns:rdf="http://www.w3.org/1999/02/22-rdf-syntax-ns#"
   xmlns:svg="http://www.w3.org/2000/svg"
   xmlns="http://www.w3.org/2000/svg"
   xmlns:sodipodi="http://sodipodi.sourceforge.net/DTD/sodipodi-0.dtd"
   xmlns:inkscape="http://www.inkscape.org/namespaces/inkscape"
   enable-background="new 0 0 2491 2491"
   viewBox="0 0 2491 2491"
   version="1.1"
   id="svg14"
   sodipodi:docname="postman.svg"
   inkscape:version="0.92.4 (fd57863, 2020-04-02)">
  <metadata
     id="metadata20">
    <rdf:RDF>
      <cc:Work
         rdf:about="">
        <dc:format>image/svg+xml</dc:format>
        <dc:type
           rdf:resource="http://purl.org/dc/dcmitype/StillImage" />
      </cc:Work>
    </rdf:RDF>
  </metadata>
  <defs
     id="defs18" />
  <sodipodi:namedview
     pagecolor="#ffffff"
     bordercolor="#666666"
     borderopacity="1"
     objecttolerance="10"
     gridtolerance="10"
     guidetolerance="10"
     inkscape:pageopacity="0"
     inkscape:pageshadow="2"
     inkscape:window-width="1853"
     inkscape:window-height="1025"
     id="namedview16"
     showgrid="false"
     inkscape:zoom="0.1339841"
     inkscape:cx="15.382098"
     inkscape:cy="1557.7428"
     inkscape:window-x="67"
     inkscape:window-y="27"
     inkscape:window-maximized="1"
     inkscape:current-layer="svg14" />
  <path
     inkscape:connector-curvature="0"
     style="fill:#ffffff;fill-opacity:1;stroke-width:0.93408328"
     d="m 1252.9636,2416.3643 c -642.55592,0 -1163.400746,-520.8449 -1163.400746,-1163.4008 0,-642.55587 520.844826,-1163.400734 1163.400746,-1163.400734 642.5559,0 1163.4007,520.844864 1163.4007,1163.400734 0,642.5559 -520.8448,1163.4008 -1163.4007,1163.4008 z"
     id="path2-3"
     sodipodi:nodetypes="sssss" />
  <path
     d="m 1245.992,2186.8879 c 519.6443,0 940.8959,-421.2516 940.8959,-940.8959 0,-519.64434 -421.2516,-940.89591 -940.8959,-940.89591 -519.64433,0 -940.89591,421.25157 -940.89591,940.89591 0,519.6443 421.25158,940.8959 940.89591,940.8959 z m 0,76.1012 c -561.69601,0 -1016.99719,-455.3011 -1016.99719,-1016.9971 0,-561.69601 455.30118,-1016.99719 1016.99719,-1016.99719 561.696,0 1016.9971,455.30118 1016.9971,1016.99719 0,561.696 -455.3011,1016.9971 -1016.9971,1016.9971 z"
     id="path2"
     inkscape:connector-curvature="0"
     style="fill:#f4815b;stroke-width:0.81653726" />
  <g
     id="g12"
     transform="matrix(0.81653726,0,0,0.81653726,228.99481,228.99481)"
     style="clip-rule:evenodd;fill-rule:evenodd">
    <path
       d="M 2075.7,614.5 C 1725.4,161.1 1074,77.5 620.6,427.8 167.3,778.1 83.7,1429.5 434,1882.8 c 350.2,453.4 1001.6,537.1 1455,186.8 453.4,-350.2 537,-1001.8 186.7,-1455.1 z"
       id="path4"
       inkscape:connector-curvature="0"
       style="fill:#ff6c37" />
    <path
       d="m 1458.8,898.6 c -74.7,34.1 -196.3,137.2 -393.6,333.7 l 56.1,56.1 18.7,18.8 381.3,-381.3 c 11.9,-11.9 27,-17.9 42.5,-20.6 -28.3,-21.2 -55.5,-29.3 -105,-6.7 m 168.2,145.5 -399.1,350.7 c 35.5,35.6 55,55 65,65.1 158.1,-150 308.6,-303 334.1,-415.8 M 945.3,1354 c 0.6,1 1.2,0.9 1.8,0.8 l 161.7,-34.9 -65.5,-65.4 -97.8,97.7 c -0.3,0.2 -0.8,0.6 -0.2,1.8 m 733.1,-541.9 135.3,-135.3 c -27.3,-21.3 -60.4,-31.8 -93.5,-31.8 -39.1,0 -78.2,14.8 -107.6,44.3 -28.8,28.8 -44.6,67 -44.6,107.7 0,40.7 15.8,79 44.6,107.8 44.2,44.3 111.1,57 168.5,31.9 L 1678.5,834.2 c -2.9,-2.9 -4.6,-6.9 -4.6,-11 -0.1,-4.2 1.6,-8.1 4.5,-11.1"
       id="path6"
       inkscape:connector-curvature="0"
       style="fill:#ffffff" />
    <path
       d="m 1823.5,847.4 c -2.7,0 -5.4,-1 -7.7,-2.8 -5,-4.2 -5.8,-11.8 -1.5,-16.9 9.1,-11 10.8,-26.3 4.3,-39 -2.9,-5.9 -0.5,-13.1 5.4,-16.1 5.9,-2.9 13.1,-0.5 16.1,5.4 10.6,21.2 7.7,46.8 -7.5,65 -2.2,2.8 -5.6,4.4 -9.1,4.4 m 12.8,-149.3 -124.9,125.1 97.6,97.6 c 6.8,-4.8 13.1,-10.2 19.1,-16 28.8,-28.8 44.6,-67.1 44.6,-107.8 0,-36.6 -12.8,-71.2 -36.4,-98.9 m -293,249.7 -380.2,380.3 43.7,43.7 402.6,-353.6 c 10.1,-8.9 15.9,-21.3 16.3,-34.7 0.4,-13.5 -4.6,-26.2 -14.1,-35.8 -18.8,-18.7 -49.4,-18.7 -68.3,0.1 m -709.4,811.1 c 0,0 0.1,0 0.2,-0.1 181.3,-90.9 327.8,-184.4 435.6,-278 l -61.5,-61.4 -161.6,25.1 -320,320 102.4,102.4 c 2.5,2.4 5,1.8 6.7,1 1.7,-1 3.5,-2.8 2.8,-6.2 L 821,1786.8 c -2.6,-11.2 2.7,-22.6 12.9,-27.9 m -37.1,119.8 -92.2,-92.2 -78.2,78.2 c -0.3,0.2 -0.6,0.6 -0.3,1.4 0.3,0.9 0.9,1 1.2,1 z M 1088,1403.2 h 0.3 c 0.3,0 0.9,0.1 1.2,0.1 l 90.9,-11.8 -40.2,-40.4 z"
       id="path8"
       inkscape:connector-curvature="0"
       style="fill:#ffffff" />
    <path
       d="m 1840.2,778 c -2.9,-5.9 -10.2,-8.4 -16.2,-5.4 -5.9,2.9 -8.3,10.1 -5.4,16.1 6.4,12.7 4.7,28 -4.4,39 -4.3,5.1 -3.5,12.7 1.6,16.9 2.2,1.8 4.9,2.8 7.7,2.8 3.5,0 6.8,-1.6 9.2,-4.4 15.2,-18.2 18.1,-43.8 7.5,-65"
       id="path10"
       inkscape:connector-curvature="0"
       style="fill:#ff6c37" />
  </g>
</svg>
